<?xml version="1.0" encoding="utf-8" standalone="no"?>
<!DOCTYPE svg PUBLIC "-//W3C//DTD SVG 1.1//EN"
  "http://www.w3.org/Graphics/SVG/1.1/DTD/svg11.dtd">
<svg xmlns:xlink="http://www.w3.org/1999/xlink" width="1440pt" height="144pt" viewBox="0 0 1440 144" xmlns="http://www.w3.org/2000/svg" version="1.1">
 <metadata>
  <rdf:RDF xmlns:dc="http://purl.org/dc/elements/1.1/" xmlns:cc="http://creativecommons.org/ns#" xmlns:rdf="http://www.w3.org/1999/02/22-rdf-syntax-ns#">
   <cc:Work>
    <dc:type rdf:resource="http://purl.org/dc/dcmitype/StillImage"/>
    <dc:date>2023-04-02T16:01:53.057930</dc:date>
    <dc:format>image/svg+xml</dc:format>
    <dc:creator>
     <cc:Agent>
      <dc:title>Matplotlib v3.5.2, https://matplotlib.org/</dc:title>
     </cc:Agent>
    </dc:creator>
   </cc:Work>
  </rdf:RDF>
 </metadata>
 <defs>
  <style type="text/css">*{stroke-linejoin: round; stroke-linecap: butt}</style>
 </defs>
 <g id="figure_1">
  <g id="patch_1">
   <path d="M 0 144 
L 1440 144 
L 1440 0 
L 0 0 
z
" style="fill: #ffffff"/>
  </g>
  <g id="axes_1">
   <g id="patch_2">
    <path d="M 180 128.16 
L 1296 128.16 
L 1296 17.28 
L 180 17.28 
z
" style="fill: #eaeaf2"/>
   </g>
   <g id="matplotlib.axis_1"/>
   <g id="matplotlib.axis_2"/>
   <g id="patch_3">
    <path d="M 181.189765 125.52 
L 202.605544 125.52 
L 202.605544 19.92 
L 181.189765 19.92 
z
" clip-path="url(#p902f55cd12)" style="fill: #ffffff; stroke: #000000; stroke-linejoin: miter"/>
   </g>
   <g id="patch_4">
    <path d="M 202.605544 125.52 
L 224.021322 125.52 
L 224.021322 19.92 
L 202.605544 19.92 
z
" clip-path="url(#p902f55cd12)" style="fill: #ffffff; stroke: #000000; stroke-linejoin: miter"/>
   </g>
   <g id="patch_5">
    <path d="M 224.021322 125.52 
L 245.4371 125.52 
L 245.4371 19.92 
L 224.021322 19.92 
z
" clip-path="url(#p902f55cd12)" style="fill: #ffffff; stroke: #000000; stroke-linejoin: miter"/>
   </g>
   <g id="patch_6">
    <path d="M 245.4371 125.52 
L 266.852878 125.52 
L 266.852878 19.92 
L 245.4371 19.92 
z
" clip-path="url(#p902f55cd12)" style="fill: #ffffff; stroke: #000000; stroke-linejoin: miter"/>
   </g>
   <g id="patch_7">
    <path d="M 266.852878 125.52 
L 288.268657 125.52 
L 288.268657 19.92 
L 266.852878 19.92 
z
" clip-path="url(#p902f55cd12)" style="fill: #ffffff; stroke: #000000; stroke-linejoin: miter"/>
   </g>
   <g id="patch_8">
    <path d="M 288.268657 125.52 
L 309.684435 125.52 
L 309.684435 19.92 
L 288.268657 19.92 
z
" clip-path="url(#p902f55cd12)" style="fill: #ffffff; stroke: #000000; stroke-linejoin: miter"/>
   </g>
   <g id="patch_9">
    <path d="M 309.684435 125.52 
L 331.100213 125.52 
L 331.100213 19.92 
L 309.684435 19.92 
z
" clip-path="url(#p902f55cd12)" style="fill: #ffffff; stroke: #000000; stroke-linejoin: miter"/>
   </g>
   <g id="patch_10">
    <path d="M 331.100213 125.52 
L 352.515991 125.52 
L 352.515991 19.92 
L 331.100213 19.92 
z
" clip-path="url(#p902f55cd12)" style="fill: #ffffff; stroke: #000000; stroke-linejoin: miter"/>
   </g>
   <g id="patch_11">
    <path d="M 352.515991 125.52 
L 373.93177 125.52 
L 373.93177 19.92 
L 352.515991 19.92 
z
" clip-path="url(#p902f55cd12)" style="fill: #ffffff; stroke: #000000; stroke-linejoin: miter"/>
   </g>
   <g id="patch_12">
    <path d="M 373.93177 125.52 
L 395.347548 125.52 
L 395.347548 19.92 
L 373.93177 19.92 
z
" clip-path="url(#p902f55cd12)" style="fill: #ffffff; stroke: #000000; stroke-linejoin: miter"/>
   </g>
   <g id="patch_13">
    <path d="M 395.347548 125.52 
L 416.763326 125.52 
L 416.763326 19.92 
L 395.347548 19.92 
z
" clip-path="url(#p902f55cd12)" style="fill: #ffffff; stroke: #000000; stroke-linejoin: miter"/>
   </g>
   <g id="patch_14">
    <path d="M 416.763326 125.52 
L 438.179104 125.52 
L 438.179104 19.92 
L 416.763326 19.92 
z
" clip-path="url(#p902f55cd12)" style="fill: #ffffff; stroke: #000000; stroke-linejoin: miter"/>
   </g>
   <g id="patch_15">
    <path d="M 438.179104 125.52 
L 459.594883 125.52 
L 459.594883 19.92 
L 438.179104 19.92 
z
" clip-path="url(#p902f55cd12)" style="fill: #ffffff; stroke: #000000; stroke-linejoin: miter"/>
   </g>
   <g id="patch_16">
    <path d="M 459.594883 125.52 
L 481.010661 125.52 
L 481.010661 19.92 
L 459.594883 19.92 
z
" clip-path="url(#p902f55cd12)" style="fill: #ffffff; stroke: #000000; stroke-linejoin: miter"/>
   </g>
   <g id="patch_17">
    <path d="M 481.010661 125.52 
L 502.426439 125.52 
L 502.426439 19.92 
L 481.010661 19.92 
z
" clip-path="url(#p902f55cd12)" style="fill: #ffffff; stroke: #000000; stroke-linejoin: miter"/>
   </g>
   <g id="patch_18">
    <path d="M 502.426439 125.52 
L 523.842217 125.52 
L 523.842217 19.92 
L 502.426439 19.92 
z
" clip-path="url(#p902f55cd12)" style="fill: #ffffff; stroke: #000000; stroke-linejoin: miter"/>
   </g>
   <g id="patch_19">
    <path d="M 523.842217 125.52 
L 545.257996 125.52 
L 545.257996 19.92 
L 523.842217 19.92 
z
" clip-path="url(#p902f55cd12)" style="fill: #ffffff; stroke: #000000; stroke-linejoin: miter"/>
   </g>
   <g id="patch_20">
    <path d="M 545.257996 125.52 
L 566.673774 125.52 
L 566.673774 19.92 
L 545.257996 19.92 
z
" clip-path="url(#p902f55cd12)" style="fill: #ffffff; stroke: #000000; stroke-linejoin: miter"/>
   </g>
   <g id="patch_21">
    <path d="M 566.673774 125.52 
L 588.089552 125.52 
L 588.089552 19.92 
L 566.673774 19.92 
z
" clip-path="url(#p902f55cd12)" style="fill: #ffffff; stroke: #000000; stroke-linejoin: miter"/>
   </g>
   <g id="patch_22">
    <path d="M 588.089552 125.52 
L 609.50533 125.52 
L 609.50533 19.92 
L 588.089552 19.92 
z
" clip-path="url(#p902f55cd12)" style="fill: #ffffff; stroke: #000000; stroke-linejoin: miter"/>
   </g>
   <g id="patch_23">
    <path d="M 609.50533 125.52 
L 630.921109 125.52 
L 630.921109 19.92 
L 609.50533 19.92 
z
" clip-path="url(#p902f55cd12)" style="fill: #ffffff; stroke: #000000; stroke-linejoin: miter"/>
   </g>
   <g id="patch_24">
    <path d="M 630.921109 125.52 
L 652.336887 125.52 
L 652.336887 19.92 
L 630.921109 19.92 
z
" clip-path="url(#p902f55cd12)" style="fill: #ffffff; stroke: #000000; stroke-linejoin: miter"/>
   </g>
   <g id="patch_25">
    <path d="M 652.336887 125.52 
L 673.752665 125.52 
L 673.752665 19.92 
L 652.336887 19.92 
z
" clip-path="url(#p902f55cd12)" style="fill: #ffffff; stroke: #000000; stroke-linejoin: miter"/>
   </g>
   <g id="patch_26">
    <path d="M 673.752665 125.52 
L 695.168443 125.52 
L 695.168443 19.92 
L 673.752665 19.92 
z
" clip-path="url(#p902f55cd12)" style="fill: #ffffff; stroke: #000000; stroke-linejoin: miter"/>
   </g>
   <g id="patch_27">
    <path d="M 695.168443 125.52 
L 716.584222 125.52 
L 716.584222 19.92 
L 695.168443 19.92 
z
" clip-path="url(#p902f55cd12)" style="fill: #ffffff; stroke: #000000; stroke-linejoin: miter"/>
   </g>
   <g id="patch_28">
    <path d="M 716.584222 125.52 
L 738 125.52 
L 738 19.92 
L 716.584222 19.92 
z
" clip-path="url(#p902f55cd12)" style="fill: #ffffff; stroke: #000000; stroke-linejoin: miter"/>
   </g>
   <g id="patch_29">
    <path d="M 738 125.52 
L 759.415778 125.52 
L 759.415778 19.92 
L 738 19.92 
z
" clip-path="url(#p902f55cd12)" style="fill: #ffffff; stroke: #000000; stroke-linejoin: miter"/>
   </g>
   <g id="patch_30">
    <path d="M 759.415778 125.52 
L 780.831557 125.52 
L 780.831557 19.92 
L 759.415778 19.92 
z
" clip-path="url(#p902f55cd12)" style="fill: #ffffff; stroke: #000000; stroke-linejoin: miter"/>
   </g>
   <g id="patch_31">
    <path d="M 780.831557 125.52 
L 802.247335 125.52 
L 802.247335 19.92 
L 780.831557 19.92 
z
" clip-path="url(#p902f55cd12)" style="fill: #ffffff; stroke: #000000; stroke-linejoin: miter"/>
   </g>
   <g id="patch_32">
    <path d="M 802.247335 125.52 
L 823.663113 125.52 
L 823.663113 19.92 
L 802.247335 19.92 
z
" clip-path="url(#p902f55cd12)" style="fill: #ffffff; stroke: #000000; stroke-linejoin: miter"/>
   </g>
   <g id="patch_33">
    <path d="M 823.663113 125.52 
L 845.078891 125.52 
L 845.078891 19.92 
L 823.663113 19.92 
z
" clip-path="url(#p902f55cd12)" style="fill: #ffffff; stroke: #000000; stroke-linejoin: miter"/>
   </g>
   <g id="patch_34">
    <path d="M 845.078891 125.52 
L 866.49467 125.52 
L 866.49467 19.92 
L 845.078891 19.92 
z
" clip-path="url(#p902f55cd12)" style="fill: #ffffff; stroke: #000000; stroke-linejoin: miter"/>
   </g>
   <g id="patch_35">
    <path d="M 866.49467 125.52 
L 887.910448 125.52 
L 887.910448 19.92 
L 866.49467 19.92 
z
" clip-path="url(#p902f55cd12)" style="fill: #ffffff; stroke: #000000; stroke-linejoin: miter"/>
   </g>
   <g id="patch_36">
    <path d="M 887.910448 125.52 
L 909.326226 125.52 
L 909.326226 19.92 
L 887.910448 19.92 
z
" clip-path="url(#p902f55cd12)" style="fill: #ffffff; stroke: #000000; stroke-linejoin: miter"/>
   </g>
   <g id="patch_37">
    <path d="M 909.326226 125.52 
L 930.742004 125.52 
L 930.742004 19.92 
L 909.326226 19.92 
z
" clip-path="url(#p902f55cd12)" style="fill: #ffffff; stroke: #000000; stroke-linejoin: miter"/>
   </g>
   <g id="patch_38">
    <path d="M 930.742004 125.52 
L 952.157783 125.52 
L 952.157783 19.92 
L 930.742004 19.92 
z
" clip-path="url(#p902f55cd12)" style="fill: #ffffff; stroke: #000000; stroke-linejoin: miter"/>
   </g>
   <g id="patch_39">
    <path d="M 952.157783 125.52 
L 973.573561 125.52 
L 973.573561 19.92 
L 952.157783 19.92 
z
" clip-path="url(#p902f55cd12)" style="fill: #ffffff; stroke: #000000; stroke-linejoin: miter"/>
   </g>
   <g id="patch_40">
    <path d="M 973.573561 125.52 
L 994.989339 125.52 
L 994.989339 19.92 
L 973.573561 19.92 
z
" clip-path="url(#p902f55cd12)" style="fill: #ffffff; stroke: #000000; stroke-linejoin: miter"/>
   </g>
   <g id="patch_41">
    <path d="M 994.989339 125.52 
L 1016.405117 125.52 
L 1016.405117 19.92 
L 994.989339 19.92 
z
" clip-path="url(#p902f55cd12)" style="fill: #ffffff; stroke: #000000; stroke-linejoin: miter"/>
   </g>
   <g id="patch_42">
    <path d="M 1016.405117 125.52 
L 1037.820896 125.52 
L 1037.820896 19.92 
L 1016.405117 19.92 
z
" clip-path="url(#p902f55cd12)" style="fill: #ffffff; stroke: #000000; stroke-linejoin: miter"/>
   </g>
   <g id="patch_43">
    <path d="M 1037.820896 125.52 
L 1059.236674 125.52 
L 1059.236674 19.92 
L 1037.820896 19.92 
z
" clip-path="url(#p902f55cd12)" style="fill: #ffffff; stroke: #000000; stroke-linejoin: miter"/>
   </g>
   <g id="patch_44">
    <path d="M 1059.236674 125.52 
L 1080.652452 125.52 
L 1080.652452 19.92 
L 1059.236674 19.92 
z
" clip-path="url(#p902f55cd12)" style="fill: #ffffff; stroke: #000000; stroke-linejoin: miter"/>
   </g>
   <g id="patch_45">
    <path d="M 1080.652452 125.52 
L 1102.06823 125.52 
L 1102.06823 19.92 
L 1080.652452 19.92 
z
" clip-path="url(#p902f55cd12)" style="fill: #ffffff; stroke: #000000; stroke-linejoin: miter"/>
   </g>
   <g id="patch_46">
    <path d="M 1102.06823 125.52 
L 1123.484009 125.52 
L 1123.484009 19.92 
L 1102.06823 19.92 
z
" clip-path="url(#p902f55cd12)" style="fill: #ffffff; stroke: #000000; stroke-linejoin: miter"/>
   </g>
   <g id="patch_47">
    <path d="M 1123.484009 125.52 
L 1144.899787 125.52 
L 1144.899787 19.92 
L 1123.484009 19.92 
z
" clip-path="url(#p902f55cd12)" style="fill: #ffffff; stroke: #000000; stroke-linejoin: miter"/>
   </g>
   <g id="patch_48">
    <path d="M 1144.899787 125.52 
L 1166.315565 125.52 
L 1166.315565 19.92 
L 1144.899787 19.92 
z
" clip-path="url(#p902f55cd12)" style="fill: #ffffff; stroke: #000000; stroke-linejoin: miter"/>
   </g>
   <g id="patch_49">
    <path d="M 1166.315565 125.52 
L 1187.731343 125.52 
L 1187.731343 19.92 
L 1166.315565 19.92 
z
" clip-path="url(#p902f55cd12)" style="fill: #ffffff; stroke: #000000; stroke-linejoin: miter"/>
   </g>
   <g id="patch_50">
    <path d="M 1187.731343 125.52 
L 1209.147122 125.52 
L 1209.147122 19.92 
L 1187.731343 19.92 
z
" clip-path="url(#p902f55cd12)" style="fill: #ffffff; stroke: #000000; stroke-linejoin: miter"/>
   </g>
   <g id="patch_51">
    <path d="M 1209.147122 125.52 
L 1230.5629 125.52 
L 1230.5629 19.92 
L 1209.147122 19.92 
z
" clip-path="url(#p902f55cd12)" style="fill: #ffffff; stroke: #000000; stroke-linejoin: miter"/>
   </g>
   <g id="patch_52">
    <path d="M 1230.5629 125.52 
L 1251.978678 125.52 
L 1251.978678 19.92 
L 1230.5629 19.92 
z
" clip-path="url(#p902f55cd12)" style="fill: #ffffff; stroke: #000000; stroke-linejoin: miter"/>
   </g>
   <g id="patch_53">
    <path d="M 1251.978678 125.52 
L 1273.394456 125.52 
L 1273.394456 19.92 
L 1251.978678 19.92 
z
" clip-path="url(#p902f55cd12)" style="fill: #ffffff; stroke: #000000; stroke-linejoin: miter"/>
   </g>
   <g id="patch_54">
    <path d="M 1273.394456 125.52 
L 1294.810235 125.52 
L 1294.810235 19.92 
L 1273.394456 19.92 
z
" clip-path="url(#p902f55cd12)" style="fill: #ffffff; stroke: #000000; stroke-linejoin: miter"/>
   </g>
   <g id="patch_55">
    <path d="M 195.110021 83.28 
L 210.101066 83.28 
L 210.101066 19.92 
L 195.110021 19.92 
z
" clip-path="url(#p902f55cd12)" style="stroke: #000000; stroke-linejoin: miter"/>
   </g>
   <g id="patch_56">
    <path d="M 237.941578 83.28 
L 252.932623 83.28 
L 252.932623 19.92 
L 237.941578 19.92 
z
" clip-path="url(#p902f55cd12)" style="stroke: #000000; stroke-linejoin: miter"/>
   </g>
   <g id="patch_57">
    <path d="M 259.357356 83.28 
L 274.348401 83.28 
L 274.348401 19.92 
L 259.357356 19.92 
z
" clip-path="url(#p902f55cd12)" style="stroke: #000000; stroke-linejoin: miter"/>
   </g>
   <g id="patch_58">
    <path d="M 302.188913 83.28 
L 317.179957 83.28 
L 317.179957 19.92 
L 302.188913 19.92 
z
" clip-path="url(#p902f55cd12)" style="stroke: #000000; stroke-linejoin: miter"/>
   </g>
   <g id="patch_59">
    <path d="M 323.604691 83.28 
L 338.595736 83.28 
L 338.595736 19.92 
L 323.604691 19.92 
z
" clip-path="url(#p902f55cd12)" style="stroke: #000000; stroke-linejoin: miter"/>
   </g>
   <g id="patch_60">
    <path d="M 345.020469 83.28 
L 360.011514 83.28 
L 360.011514 19.92 
L 345.020469 19.92 
z
" clip-path="url(#p902f55cd12)" style="stroke: #000000; stroke-linejoin: miter"/>
   </g>
   <g id="patch_61">
    <path d="M 387.852026 83.28 
L 402.84307 83.28 
L 402.84307 19.92 
L 387.852026 19.92 
z
" clip-path="url(#p902f55cd12)" style="stroke: #000000; stroke-linejoin: miter"/>
   </g>
   <g id="patch_62">
    <path d="M 409.267804 83.28 
L 424.258849 83.28 
L 424.258849 19.92 
L 409.267804 19.92 
z
" clip-path="url(#p902f55cd12)" style="stroke: #000000; stroke-linejoin: miter"/>
   </g>
   <g id="patch_63">
    <path d="M 452.09936 83.28 
L 467.090405 83.28 
L 467.090405 19.92 
L 452.09936 19.92 
z
" clip-path="url(#p902f55cd12)" style="stroke: #000000; stroke-linejoin: miter"/>
   </g>
   <g id="patch_64">
    <path d="M 473.515139 83.28 
L 488.506183 83.28 
L 488.506183 19.92 
L 473.515139 19.92 
z
" clip-path="url(#p902f55cd12)" style="stroke: #000000; stroke-linejoin: miter"/>
   </g>
   <g id="patch_65">
    <path d="M 494.930917 83.28 
L 509.921962 83.28 
L 509.921962 19.92 
L 494.930917 19.92 
z
" clip-path="url(#p902f55cd12)" style="stroke: #000000; stroke-linejoin: miter"/>
   </g>
   <g id="patch_66">
    <path d="M 537.762473 83.28 
L 552.753518 83.28 
L 552.753518 19.92 
L 537.762473 19.92 
z
" clip-path="url(#p902f55cd12)" style="stroke: #000000; stroke-linejoin: miter"/>
   </g>
   <g id="patch_67">
    <path d="M 559.178252 83.28 
L 574.169296 83.28 
L 574.169296 19.92 
L 559.178252 19.92 
z
" clip-path="url(#p902f55cd12)" style="stroke: #000000; stroke-linejoin: miter"/>
   </g>
   <g id="patch_68">
    <path d="M 602.009808 83.28 
L 617.000853 83.28 
L 617.000853 19.92 
L 602.009808 19.92 
z
" clip-path="url(#p902f55cd12)" style="stroke: #000000; stroke-linejoin: miter"/>
   </g>
   <g id="patch_69">
    <path d="M 623.425586 83.28 
L 638.416631 83.28 
L 638.416631 19.92 
L 623.425586 19.92 
z
" clip-path="url(#p902f55cd12)" style="stroke: #000000; stroke-linejoin: miter"/>
   </g>
   <g id="patch_70">
    <path d="M 644.841365 83.28 
L 659.832409 83.28 
L 659.832409 19.92 
L 644.841365 19.92 
z
" clip-path="url(#p902f55cd12)" style="stroke: #000000; stroke-linejoin: miter"/>
   </g>
   <g id="patch_71">
    <path d="M 687.672921 83.28 
L 702.663966 83.28 
L 702.663966 19.92 
L 687.672921 19.92 
z
" clip-path="url(#p902f55cd12)" style="stroke: #000000; stroke-linejoin: miter"/>
   </g>
   <g id="patch_72">
    <path d="M 709.088699 83.28 
L 724.079744 83.28 
L 724.079744 19.92 
L 709.088699 19.92 
z
" clip-path="url(#p902f55cd12)" style="stroke: #000000; stroke-linejoin: miter"/>
   </g>
   <g id="patch_73">
    <path d="M 751.920256 83.28 
L 766.911301 83.28 
L 766.911301 19.92 
L 751.920256 19.92 
z
" clip-path="url(#p902f55cd12)" style="stroke: #000000; stroke-linejoin: miter"/>
   </g>
   <g id="patch_74">
    <path d="M 773.336034 83.28 
L 788.327079 83.28 
L 788.327079 19.92 
L 773.336034 19.92 
z
" clip-path="url(#p902f55cd12)" style="stroke: #000000; stroke-linejoin: miter"/>
   </g>
   <g id="patch_75">
    <path d="M 794.751812 83.28 
L 809.742857 83.28 
L 809.742857 19.92 
L 794.751812 19.92 
z
" clip-path="url(#p902f55cd12)" style="stroke: #000000; stroke-linejoin: miter"/>
   </g>
   <g id="patch_76">
    <path d="M 837.583369 83.28 
L 852.574414 83.28 
L 852.574414 19.92 
L 837.583369 19.92 
z
" clip-path="url(#p902f55cd12)" style="stroke: #000000; stroke-linejoin: miter"/>
   </g>
   <g id="patch_77">
    <path d="M 858.999147 83.28 
L 873.990192 83.28 
L 873.990192 19.92 
L 858.999147 19.92 
z
" clip-path="url(#p902f55cd12)" style="stroke: #000000; stroke-linejoin: miter"/>
   </g>
   <g id="patch_78">
    <path d="M 901.830704 83.28 
L 916.821748 83.28 
L 916.821748 19.92 
L 901.830704 19.92 
z
" clip-path="url(#p902f55cd12)" style="stroke: #000000; stroke-linejoin: miter"/>
   </g>
   <g id="patch_79">
    <path d="M 923.246482 83.28 
L 938.237527 83.28 
L 938.237527 19.92 
L 923.246482 19.92 
z
" clip-path="url(#p902f55cd12)" style="stroke: #000000; stroke-linejoin: miter"/>
   </g>
   <g id="patch_80">
    <path d="M 944.66226 83.28 
L 959.653305 83.28 
L 959.653305 19.92 
L 944.66226 19.92 
z
" clip-path="url(#p902f55cd12)" style="stroke: #000000; stroke-linejoin: miter"/>
   </g>
   <g id="patch_81">
    <path d="M 987.493817 83.28 
L 1002.484861 83.28 
L 1002.484861 19.92 
L 987.493817 19.92 
z
" clip-path="url(#p902f55cd12)" style="stroke: #000000; stroke-linejoin: miter"/>
   </g>
   <g id="patch_82">
    <path d="M 1008.909595 83.28 
L 1023.90064 83.28 
L 1023.90064 19.92 
L 1008.909595 19.92 
z
" clip-path="url(#p902f55cd12)" style="stroke: #000000; stroke-linejoin: miter"/>
   </g>
   <g id="patch_83">
    <path d="M 1051.741151 83.28 
L 1066.732196 83.28 
L 1066.732196 19.92 
L 1051.741151 19.92 
z
" clip-path="url(#p902f55cd12)" style="stroke: #000000; stroke-linejoin: miter"/>
   </g>
   <g id="patch_84">
    <path d="M 1073.15693 83.28 
L 1088.147974 83.28 
L 1088.147974 19.92 
L 1073.15693 19.92 
z
" clip-path="url(#p902f55cd12)" style="stroke: #000000; stroke-linejoin: miter"/>
   </g>
   <g id="patch_85">
    <path d="M 1094.572708 83.28 
L 1109.563753 83.28 
L 1109.563753 19.92 
L 1094.572708 19.92 
z
" clip-path="url(#p902f55cd12)" style="stroke: #000000; stroke-linejoin: miter"/>
   </g>
   <g id="patch_86">
    <path d="M 1137.404264 83.28 
L 1152.395309 83.28 
L 1152.395309 19.92 
L 1137.404264 19.92 
z
" clip-path="url(#p902f55cd12)" style="stroke: #000000; stroke-linejoin: miter"/>
   </g>
   <g id="patch_87">
    <path d="M 1158.820043 83.28 
L 1173.811087 83.28 
L 1173.811087 19.92 
L 1158.820043 19.92 
z
" clip-path="url(#p902f55cd12)" style="stroke: #000000; stroke-linejoin: miter"/>
   </g>
   <g id="patch_88">
    <path d="M 1201.651599 83.28 
L 1216.642644 83.28 
L 1216.642644 19.92 
L 1201.651599 19.92 
z
" clip-path="url(#p902f55cd12)" style="stroke: #000000; stroke-linejoin: miter"/>
   </g>
   <g id="patch_89">
    <path d="M 1223.067377 83.28 
L 1238.058422 83.28 
L 1238.058422 19.92 
L 1223.067377 19.92 
z
" clip-path="url(#p902f55cd12)" style="stroke: #000000; stroke-linejoin: miter"/>
   </g>
   <g id="patch_90">
    <path d="M 1244.483156 83.28 
L 1259.4742 83.28 
L 1259.4742 19.92 
L 1244.483156 19.92 
z
" clip-path="url(#p902f55cd12)" style="stroke: #000000; stroke-linejoin: miter"/>
   </g>
   <g id="patch_91">
    <path d="M 180 128.16 
L 180 17.28 
" style="fill: none; stroke: #ffffff; stroke-width: 1.25; stroke-linejoin: miter; stroke-linecap: square"/>
   </g>
   <g id="patch_92">
    <path d="M 1296 128.16 
L 1296 17.28 
" style="fill: none; stroke: #ffffff; stroke-width: 1.25; stroke-linejoin: miter; stroke-linecap: square"/>
   </g>
   <g id="patch_93">
    <path d="M 180 128.16 
L 1296 128.16 
" style="fill: none; stroke: #ffffff; stroke-width: 1.25; stroke-linejoin: miter; stroke-linecap: square"/>
   </g>
   <g id="patch_94">
    <path d="M 180 17.28 
L 1296 17.28 
" style="fill: none; stroke: #ffffff; stroke-width: 1.25; stroke-linejoin: miter; stroke-linecap: square"/>
   </g>
  </g>
 </g>
 <defs>
  <clipPath id="p902f55cd12">
   <rect x="180" y="17.28" width="1116" height="110.88"/>
  </clipPath>
 </defs>
</svg>
