<?xml version="1.0" encoding="UTF-8" standalone="no"?>
<!DOCTYPE svg PUBLIC "-//W3C//DTD SVG 1.1//EN"
 "http://www.w3.org/Graphics/SVG/1.1/DTD/svg11.dtd">
<!-- Generated by graphviz version 2.50.0 (0)
 -->
<!-- Pages: 1 -->
<svg width="303pt" height="188pt"
 viewBox="0.00 0.00 303.00 188.00" xmlns="http://www.w3.org/2000/svg" xmlns:xlink="http://www.w3.org/1999/xlink">
<g id="graph0" class="graph" transform="scale(1 1) rotate(0) translate(4 184)">
<polygon fill="white" stroke="transparent" points="-4,4 -4,-184 299,-184 299,4 -4,4"/>
<!-- Energy In -->
<g id="node1" class="node">
<title>Energy In</title>
<polygon fill="none" stroke="black" points="183,-180 112,-180 112,-144 183,-144 183,-180"/>
<text text-anchor="middle" x="147.5" y="-158.3" font-family="Times,serif" font-size="14.00">Energy In</text>
</g>
<!-- Thermal Energy Converted to Internal Box Energy -->
<g id="node2" class="node">
<title>Thermal Energy Converted to Internal Box Energy</title>
<polygon fill="none" stroke="black" points="295,-108 0,-108 0,-72 295,-72 295,-108"/>
<text text-anchor="middle" x="147.5" y="-86.3" font-family="Times,serif" font-size="14.00">Thermal Energy Converted to Internal Box Energy</text>
</g>
<!-- Energy In&#45;&gt;Thermal Energy Converted to Internal Box Energy -->
<g id="edge1" class="edge">
<title>Energy In&#45;&gt;Thermal Energy Converted to Internal Box Energy</title>
<path fill="none" stroke="black" d="M147.5,-143.7C147.5,-135.98 147.5,-126.71 147.5,-118.11"/>
<polygon fill="black" stroke="black" points="151,-118.1 147.5,-108.1 144,-118.1 151,-118.1"/>
</g>
<!-- Energy Conducted -->
<g id="node3" class="node">
<title>Energy Conducted</title>
<polygon fill="none" stroke="black" points="206.5,-36 88.5,-36 88.5,0 206.5,0 206.5,-36"/>
<text text-anchor="middle" x="147.5" y="-14.3" font-family="Times,serif" font-size="14.00">Energy Conducted</text>
</g>
<!-- Thermal Energy Converted to Internal Box Energy&#45;&gt;Energy Conducted -->
<g id="edge2" class="edge">
<title>Thermal Energy Converted to Internal Box Energy&#45;&gt;Energy Conducted</title>
<path fill="none" stroke="black" d="M147.5,-71.7C147.5,-63.98 147.5,-54.71 147.5,-46.11"/>
<polygon fill="black" stroke="black" points="151,-46.1 147.5,-36.1 144,-46.1 151,-46.1"/>
</g>
</g>
</svg>
