<?xml version="1.0" encoding="UTF-8" standalone="no"?>
<!DOCTYPE svg PUBLIC "-//W3C//DTD SVG 1.1//EN"
 "http://www.w3.org/Graphics/SVG/1.1/DTD/svg11.dtd">
<!-- Generated by graphviz version 2.50.0 (0)
 -->
<!-- Pages: 1 -->
<svg width="241pt" height="332pt"
 viewBox="0.00 0.00 241.00 332.00" xmlns="http://www.w3.org/2000/svg" xmlns:xlink="http://www.w3.org/1999/xlink">
<g id="graph0" class="graph" transform="scale(1 1) rotate(0) translate(4 328)">
<polygon fill="white" stroke="transparent" points="-4,4 -4,-328 237,-328 237,4 -4,4"/>
<!-- 50th percentile -->
<g id="node1" class="node">
<title>50th percentile</title>
<text text-anchor="middle" x="116.5" y="-302.3" font-family="Times,serif" font-size="14.00">50th percentile</text>
</g>
<!-- x&#45;axis value with half of area to the left -->
<g id="node2" class="node">
<title>x&#45;axis value with half of area to the left</title>
<text text-anchor="middle" x="116.5" y="-230.3" font-family="Times,serif" font-size="14.00">x&#45;axis value with half of area to the left</text>
</g>
<!-- 50th percentile&#45;&gt;x&#45;axis value with half of area to the left -->
<g id="edge1" class="edge">
<title>50th percentile&#45;&gt;x&#45;axis value with half of area to the left</title>
<path fill="none" stroke="black" d="M116.5,-277.67C116.5,-269.05 116.5,-259.79 116.5,-252.1"/>
<polygon fill="black" stroke="black" points="116.5,-287.7 112,-277.7 116.5,-282.7 116.5,-277.7 116.5,-277.7 116.5,-277.7 116.5,-282.7 121,-277.7 116.5,-287.7 116.5,-287.7"/>
</g>
<!-- area of triangle -->
<g id="node3" class="node">
<title>area of triangle</title>
<text text-anchor="middle" x="116.5" y="-158.3" font-family="Times,serif" font-size="14.00">area of triangle</text>
</g>
<!-- x&#45;axis value with half of area to the left&#45;&gt;area of triangle -->
<g id="edge2" class="edge">
<title>x&#45;axis value with half of area to the left&#45;&gt;area of triangle</title>
<path fill="none" stroke="black" d="M116.5,-205.67C116.5,-197.05 116.5,-187.79 116.5,-180.1"/>
<polygon fill="black" stroke="black" points="116.5,-215.7 112,-205.7 116.5,-210.7 116.5,-205.7 116.5,-205.7 116.5,-205.7 116.5,-210.7 121,-205.7 116.5,-215.7 116.5,-215.7"/>
</g>
<!-- base -->
<g id="node4" class="node">
<title>base</title>
<text text-anchor="middle" x="44.5" y="-86.3" font-family="Times,serif" font-size="14.00">base</text>
</g>
<!-- area of triangle&#45;&gt;base -->
<g id="edge3" class="edge">
<title>area of triangle&#45;&gt;base</title>
<path fill="none" stroke="black" d="M91.28,-136.48C81.64,-127.11 70.87,-116.64 62.09,-108.1"/>
<polygon fill="black" stroke="black" points="98.7,-143.7 88.4,-139.95 95.12,-140.21 91.53,-136.73 91.53,-136.73 91.53,-136.73 95.12,-140.21 94.67,-133.5 98.7,-143.7 98.7,-143.7"/>
</g>
<!-- height -->
<g id="node5" class="node">
<title>height</title>
<text text-anchor="middle" x="116.5" y="-86.3" font-family="Times,serif" font-size="14.00">height</text>
</g>
<!-- area of triangle&#45;&gt;height -->
<g id="edge4" class="edge">
<title>area of triangle&#45;&gt;height</title>
<path fill="none" stroke="black" d="M116.5,-133.67C116.5,-125.05 116.5,-115.79 116.5,-108.1"/>
<polygon fill="black" stroke="black" points="116.5,-143.7 112,-133.7 116.5,-138.7 116.5,-133.7 116.5,-133.7 116.5,-133.7 116.5,-138.7 121,-133.7 116.5,-143.7 116.5,-143.7"/>
</g>
<!-- 1/2 -->
<g id="node6" class="node">
<title>1/2</title>
<text text-anchor="middle" x="188.5" y="-86.3" font-family="Times,serif" font-size="14.00">1/2</text>
</g>
<!-- area of triangle&#45;&gt;1/2 -->
<g id="edge5" class="edge">
<title>area of triangle&#45;&gt;1/2</title>
<path fill="none" stroke="black" d="M141.72,-136.48C151.36,-127.11 162.13,-116.64 170.91,-108.1"/>
<polygon fill="black" stroke="black" points="134.3,-143.7 138.33,-133.5 137.88,-140.21 141.47,-136.73 141.47,-136.73 141.47,-136.73 137.88,-140.21 144.6,-139.95 134.3,-143.7 134.3,-143.7"/>
</g>
<!-- slope and base -->
<g id="node7" class="node">
<title>slope and base</title>
<text text-anchor="middle" x="116.5" y="-14.3" font-family="Times,serif" font-size="14.00">slope and base</text>
</g>
<!-- height&#45;&gt;slope and base -->
<g id="edge6" class="edge">
<title>height&#45;&gt;slope and base</title>
<path fill="none" stroke="black" d="M116.5,-61.67C116.5,-53.05 116.5,-43.79 116.5,-36.1"/>
<polygon fill="black" stroke="black" points="116.5,-71.7 112,-61.7 116.5,-66.7 116.5,-61.7 116.5,-61.7 116.5,-61.7 116.5,-66.7 121,-61.7 116.5,-71.7 116.5,-71.7"/>
</g>
</g>
</svg>
