<?xml version="1.0" encoding="UTF-8" standalone="no"?>
<!DOCTYPE svg PUBLIC "-//W3C//DTD SVG 1.1//EN"
 "http://www.w3.org/Graphics/SVG/1.1/DTD/svg11.dtd">
<!-- Generated by graphviz version 2.50.0 (0)
 -->
<!-- Pages: 1 -->
<svg width="365pt" height="116pt"
 viewBox="0.00 0.00 364.50 116.00" xmlns="http://www.w3.org/2000/svg" xmlns:xlink="http://www.w3.org/1999/xlink">
<g id="graph0" class="graph" transform="scale(1 1) rotate(0) translate(4 112)">
<polygon fill="white" stroke="transparent" points="-4,4 -4,-112 360.5,-112 360.5,4 -4,4"/>
<!-- number of pizzas -->
<g id="node1" class="node">
<title>number of pizzas</title>
<text text-anchor="middle" x="184.5" y="-86.3" font-family="Times,serif" font-size="14.00">number of pizzas</text>
</g>
<!-- number of people -->
<g id="node2" class="node">
<title>number of people</title>
<text text-anchor="middle" x="56.5" y="-14.3" font-family="Times,serif" font-size="14.00">number of people</text>
</g>
<!-- number of pizzas&#45;&gt;number of people -->
<g id="edge1" class="edge">
<title>number of pizzas&#45;&gt;number of people</title>
<path fill="none" stroke="black" d="M144.01,-66.86C125.89,-56.95 104.84,-45.44 87.93,-36.19"/>
<polygon fill="black" stroke="black" points="153.19,-71.88 142.25,-71.03 148.8,-69.48 144.41,-67.08 144.41,-67.08 144.41,-67.08 148.8,-69.48 146.57,-63.13 153.19,-71.88 153.19,-71.88"/>
</g>
<!-- slices per person -->
<g id="node3" class="node">
<title>slices per person</title>
<text text-anchor="middle" x="184.5" y="-14.3" font-family="Times,serif" font-size="14.00">slices per person</text>
</g>
<!-- number of pizzas&#45;&gt;slices per person -->
<g id="edge2" class="edge">
<title>number of pizzas&#45;&gt;slices per person</title>
<path fill="none" stroke="black" d="M184.5,-61.67C184.5,-53.05 184.5,-43.79 184.5,-36.1"/>
<polygon fill="black" stroke="black" points="184.5,-71.7 180,-61.7 184.5,-66.7 184.5,-61.7 184.5,-61.7 184.5,-61.7 184.5,-66.7 189,-61.7 184.5,-71.7 184.5,-71.7"/>
</g>
<!-- slices per pizza -->
<g id="node4" class="node">
<title>slices per pizza</title>
<text text-anchor="middle" x="306.5" y="-14.3" font-family="Times,serif" font-size="14.00">slices per pizza</text>
</g>
<!-- number of pizzas&#45;&gt;slices per pizza -->
<g id="edge3" class="edge">
<title>number of pizzas&#45;&gt;slices per pizza</title>
<path fill="none" stroke="black" d="M223.09,-66.86C240.36,-56.95 260.42,-45.44 276.54,-36.19"/>
<polygon fill="black" stroke="black" points="214.34,-71.88 220.78,-63 218.68,-69.39 223.02,-66.9 223.02,-66.9 223.02,-66.9 218.68,-69.39 225.26,-70.8 214.34,-71.88 214.34,-71.88"/>
</g>
</g>
</svg>
