<?xml version="1.0" encoding="utf-8" standalone="no"?>
<!DOCTYPE svg PUBLIC "-//W3C//DTD SVG 1.1//EN"
  "http://www.w3.org/Graphics/SVG/1.1/DTD/svg11.dtd">
<svg xmlns:xlink="http://www.w3.org/1999/xlink" width="576pt" height="360pt" viewBox="0 0 576 360" xmlns="http://www.w3.org/2000/svg" version="1.1">
 <metadata>
  <rdf:RDF xmlns:dc="http://purl.org/dc/elements/1.1/" xmlns:cc="http://creativecommons.org/ns#" xmlns:rdf="http://www.w3.org/1999/02/22-rdf-syntax-ns#">
   <cc:Work>
    <dc:type rdf:resource="http://purl.org/dc/dcmitype/StillImage"/>
    <dc:date>2025-11-12T06:52:14.896071</dc:date>
    <dc:format>image/svg+xml</dc:format>
    <dc:creator>
     <cc:Agent>
      <dc:title>Matplotlib v3.10.1, https://matplotlib.org/</dc:title>
     </cc:Agent>
    </dc:creator>
   </cc:Work>
  </rdf:RDF>
 </metadata>
 <defs>
  <style type="text/css">*{stroke-linejoin: round; stroke-linecap: butt}</style>
 </defs>
 <g id="figure_1">
  <g id="patch_1">
   <path d="M 0 360 
L 576 360 
L 576 0 
L 0 0 
z
" style="fill: #ffffff"/>
  </g>
  <g id="axes_1">
   <g id="patch_2">
    <path d="M 72 320.4 
L 518.4 320.4 
L 518.4 43.2 
L 72 43.2 
z
" style="fill: #ffffff"/>
   </g>
   <g id="FillBetweenPolyCollection_1">
    <defs>
     <path id="m5cb5fe5d71" d="M 92.290909 -52.284537 
L 92.290909 -52.2 
L 92.766108 -52.2 
L 93.241306 -52.2 
L 93.716505 -52.2 
L 94.191704 -52.2 
L 94.666902 -52.2 
L 95.142101 -52.2 
L 95.6173 -52.2 
L 96.092498 -52.2 
L 96.567697 -52.2 
L 97.042895 -52.2 
L 97.518094 -52.2 
L 97.993293 -52.2 
L 98.468491 -52.2 
L 98.94369 -52.2 
L 99.418889 -52.2 
L 99.894087 -52.2 
L 100.369286 -52.2 
L 100.844484 -52.2 
L 101.319683 -52.2 
L 101.794882 -52.2 
L 102.27008 -52.2 
L 102.745279 -52.2 
L 103.220478 -52.2 
L 103.695676 -52.2 
L 104.170875 -52.2 
L 104.646073 -52.2 
L 105.121272 -52.2 
L 105.596471 -52.2 
L 106.071669 -52.2 
L 106.546868 -52.2 
L 107.022067 -52.2 
L 107.497265 -52.2 
L 107.972464 -52.2 
L 108.447663 -52.2 
L 108.922861 -52.2 
L 109.39806 -52.2 
L 109.873258 -52.2 
L 110.348457 -52.2 
L 110.823656 -52.2 
L 111.298854 -52.2 
L 111.774053 -52.2 
L 112.249252 -52.2 
L 112.72445 -52.2 
L 113.199649 -52.2 
L 113.674847 -52.2 
L 114.150046 -52.2 
L 114.625245 -52.2 
L 115.100443 -52.2 
L 115.575642 -52.2 
L 116.050841 -52.2 
L 116.526039 -52.2 
L 117.001238 -52.2 
L 117.476436 -52.2 
L 117.951635 -52.2 
L 118.426834 -52.2 
L 118.902032 -52.2 
L 119.377231 -52.2 
L 119.85243 -52.2 
L 120.327628 -52.2 
L 120.802827 -52.2 
L 121.278026 -52.2 
L 121.753224 -52.2 
L 122.228423 -52.2 
L 122.703621 -52.2 
L 123.17882 -52.2 
L 123.654019 -52.2 
L 124.129217 -52.2 
L 124.604416 -52.2 
L 125.079615 -52.2 
L 125.554813 -52.2 
L 126.030012 -52.2 
L 126.50521 -52.2 
L 126.980409 -52.2 
L 127.455608 -52.2 
L 127.930806 -52.2 
L 128.406005 -52.2 
L 128.881204 -52.2 
L 129.356402 -52.2 
L 129.831601 -52.2 
L 130.306799 -52.2 
L 130.781998 -52.2 
L 131.257197 -52.2 
L 131.732395 -52.2 
L 132.207594 -52.2 
L 132.682793 -52.2 
L 133.157991 -52.2 
L 133.63319 -52.2 
L 134.108389 -52.2 
L 134.583587 -52.2 
L 135.058786 -52.2 
L 135.533984 -52.2 
L 136.009183 -52.2 
L 136.484382 -52.2 
L 136.95958 -52.2 
L 137.434779 -52.2 
L 137.909978 -52.2 
L 138.385176 -52.2 
L 138.860375 -52.2 
L 139.335573 -52.2 
L 139.810772 -52.2 
L 140.285971 -52.2 
L 140.761169 -52.2 
L 141.236368 -52.2 
L 141.711567 -52.2 
L 142.186765 -52.2 
L 142.661964 -52.2 
L 143.137163 -52.2 
L 143.612361 -52.2 
L 144.08756 -52.2 
L 144.562758 -52.2 
L 145.037957 -52.2 
L 145.513156 -52.2 
L 145.988354 -52.2 
L 146.463553 -52.2 
L 146.938752 -52.2 
L 147.41395 -52.2 
L 147.889149 -52.2 
L 148.364347 -52.2 
L 148.839546 -52.2 
L 149.314745 -52.2 
L 149.789943 -52.2 
L 150.265142 -52.2 
L 150.740341 -52.2 
L 151.215539 -52.2 
L 151.690738 -52.2 
L 152.165936 -52.2 
L 152.641135 -52.2 
L 153.116334 -52.2 
L 153.591532 -52.2 
L 154.066731 -52.2 
L 154.54193 -52.2 
L 155.017128 -52.2 
L 155.492327 -52.2 
L 155.967526 -52.2 
L 156.442724 -52.2 
L 156.917923 -52.2 
L 157.393121 -52.2 
L 157.86832 -52.2 
L 158.343519 -52.2 
L 158.818717 -52.2 
L 159.293916 -52.2 
L 159.769115 -52.2 
L 160.244313 -52.2 
L 160.719512 -52.2 
L 161.19471 -52.2 
L 161.669909 -52.2 
L 162.145108 -52.2 
L 162.620306 -52.2 
L 163.095505 -52.2 
L 163.570704 -52.2 
L 164.045902 -52.2 
L 164.521101 -52.2 
L 164.996299 -52.2 
L 165.471498 -52.2 
L 165.946697 -52.2 
L 166.421895 -52.2 
L 166.897094 -52.2 
L 167.372293 -52.2 
L 167.847491 -52.2 
L 168.32269 -52.2 
L 168.797889 -52.2 
L 169.273087 -52.2 
L 169.748286 -52.2 
L 170.223484 -52.2 
L 170.698683 -52.2 
L 171.173882 -52.2 
L 171.64908 -52.2 
L 172.124279 -52.2 
L 172.599478 -52.2 
L 173.074676 -52.2 
L 173.549875 -52.2 
L 174.025073 -52.2 
L 174.500272 -52.2 
L 174.975471 -52.2 
L 175.450669 -52.2 
L 175.925868 -52.2 
L 176.401067 -52.2 
L 176.876265 -52.2 
L 177.351464 -52.2 
L 177.826663 -52.2 
L 178.301861 -52.2 
L 178.77706 -52.2 
L 179.252258 -52.2 
L 179.727457 -52.2 
L 180.202656 -52.2 
L 180.677854 -52.2 
L 181.153053 -52.2 
L 181.628252 -52.2 
L 182.10345 -52.2 
L 182.578649 -52.2 
L 183.053847 -52.2 
L 183.529046 -52.2 
L 184.004245 -52.2 
L 184.479443 -52.2 
L 184.954642 -52.2 
L 185.429841 -52.2 
L 185.905039 -52.2 
L 186.380238 -52.2 
L 186.855436 -52.2 
L 187.330635 -52.2 
L 187.805834 -52.2 
L 188.281032 -52.2 
L 188.756231 -52.2 
L 189.23143 -52.2 
L 189.706628 -52.2 
L 190.181827 -52.2 
L 190.657026 -52.2 
L 191.132224 -52.2 
L 191.607423 -52.2 
L 192.082621 -52.2 
L 192.55782 -52.2 
L 193.033019 -52.2 
L 193.508217 -52.2 
L 193.983416 -52.2 
L 194.458615 -52.2 
L 194.933813 -52.2 
L 195.409012 -52.2 
L 195.88421 -52.2 
L 196.359409 -52.2 
L 196.834608 -52.2 
L 197.309806 -52.2 
L 197.785005 -52.2 
L 198.260204 -52.2 
L 198.735402 -52.2 
L 199.210601 -52.2 
L 199.685799 -52.2 
L 200.160998 -52.2 
L 200.636197 -52.2 
L 201.111395 -52.2 
L 201.586594 -52.2 
L 202.061793 -52.2 
L 202.536991 -52.2 
L 203.01219 -52.2 
L 203.487389 -52.2 
L 203.962587 -52.2 
L 204.437786 -52.2 
L 204.912984 -52.2 
L 205.388183 -52.2 
L 205.863382 -52.2 
L 206.33858 -52.2 
L 206.813779 -52.2 
L 207.288978 -52.2 
L 207.764176 -52.2 
L 208.239375 -52.2 
L 208.714573 -52.2 
L 209.189772 -52.2 
L 209.664971 -52.2 
L 210.140169 -52.2 
L 210.615368 -52.2 
L 211.090567 -52.2 
L 211.565765 -52.2 
L 212.040964 -52.2 
L 212.516163 -52.2 
L 212.991361 -52.2 
L 213.46656 -52.2 
L 213.941758 -52.2 
L 214.416957 -52.2 
L 214.892156 -52.2 
L 215.367354 -52.2 
L 215.842553 -52.2 
L 216.317752 -52.2 
L 216.79295 -52.2 
L 217.268149 -52.2 
L 217.743347 -52.2 
L 218.218546 -52.2 
L 218.693745 -52.2 
L 219.168943 -52.2 
L 219.644142 -52.2 
L 220.119341 -52.2 
L 220.594539 -52.2 
L 221.069738 -52.2 
L 221.544936 -52.2 
L 222.020135 -52.2 
L 222.495334 -52.2 
L 222.970532 -52.2 
L 223.445731 -52.2 
L 223.92093 -52.2 
L 224.396128 -52.2 
L 224.871327 -52.2 
L 225.346526 -52.2 
L 225.821724 -52.2 
L 226.296923 -52.2 
L 226.772121 -52.2 
L 227.24732 -52.2 
L 227.722519 -52.2 
L 228.197717 -52.2 
L 228.672916 -52.2 
L 229.148115 -52.2 
L 229.623313 -52.2 
L 230.098512 -52.2 
L 230.57371 -52.2 
L 231.048909 -52.2 
L 231.524108 -52.2 
L 231.999306 -52.2 
L 232.474505 -52.2 
L 232.949704 -52.2 
L 233.424902 -52.2 
L 233.900101 -52.2 
L 234.375299 -52.2 
L 234.850498 -52.2 
L 235.325697 -52.2 
L 235.800895 -52.2 
L 236.276094 -52.2 
L 236.751293 -52.2 
L 237.226491 -52.2 
L 237.70169 -52.2 
L 238.176889 -52.2 
L 238.652087 -52.2 
L 239.127286 -52.2 
L 239.602484 -52.2 
L 240.077683 -52.2 
L 240.552882 -52.2 
L 241.02808 -52.2 
L 241.503279 -52.2 
L 241.978478 -52.2 
L 242.453676 -52.2 
L 242.928875 -52.2 
L 243.404073 -52.2 
L 243.879272 -52.2 
L 244.354471 -52.2 
L 244.829669 -52.2 
L 245.304868 -52.2 
L 245.780067 -52.2 
L 246.255265 -52.2 
L 246.730464 -52.2 
L 247.205663 -52.2 
L 247.680861 -52.2 
L 248.15606 -52.2 
L 248.631258 -52.2 
L 249.106457 -52.2 
L 249.581656 -52.2 
L 250.056854 -52.2 
L 250.532053 -52.2 
L 251.007252 -52.2 
L 251.48245 -52.2 
L 251.957649 -52.2 
L 252.432847 -52.2 
L 252.908046 -52.2 
L 253.383245 -52.2 
L 253.858443 -52.2 
L 254.333642 -52.2 
L 254.808841 -52.2 
L 255.284039 -52.2 
L 255.759238 -52.2 
L 256.234436 -52.2 
L 256.709635 -52.2 
L 257.184834 -52.2 
L 257.660032 -52.2 
L 258.135231 -52.2 
L 258.61043 -52.2 
L 259.085628 -52.2 
L 259.560827 -52.2 
L 260.036026 -52.2 
L 260.511224 -52.2 
L 260.986423 -52.2 
L 261.461621 -52.2 
L 261.93682 -52.2 
L 262.412019 -52.2 
L 262.887217 -52.2 
L 263.362416 -52.2 
L 263.837615 -52.2 
L 264.312813 -52.2 
L 264.788012 -52.2 
L 265.26321 -52.2 
L 265.738409 -52.2 
L 266.213608 -52.2 
L 266.688806 -52.2 
L 267.164005 -52.2 
L 267.639204 -52.2 
L 268.114402 -52.2 
L 268.589601 -52.2 
L 269.064799 -52.2 
L 269.539998 -52.2 
L 270.015197 -52.2 
L 270.490395 -52.2 
L 270.965594 -52.2 
L 271.440793 -52.2 
L 271.915991 -52.2 
L 272.39119 -52.2 
L 272.866389 -52.2 
L 273.341587 -52.2 
L 273.816786 -52.2 
L 274.291984 -52.2 
L 274.767183 -52.2 
L 275.242382 -52.2 
L 275.71758 -52.2 
L 276.192779 -52.2 
L 276.667978 -52.2 
L 277.143176 -52.2 
L 277.618375 -52.2 
L 278.093573 -52.2 
L 278.568772 -52.2 
L 279.043971 -52.2 
L 279.519169 -52.2 
L 279.994368 -52.2 
L 280.469567 -52.2 
L 280.944765 -52.2 
L 281.419964 -52.2 
L 281.895163 -52.2 
L 282.370361 -52.2 
L 282.84556 -52.2 
L 283.320758 -52.2 
L 283.795957 -52.2 
L 284.271156 -52.2 
L 284.746354 -52.2 
L 285.221553 -52.2 
L 285.696752 -52.2 
L 286.17195 -52.2 
L 286.647149 -52.2 
L 287.122347 -52.2 
L 287.597546 -52.2 
L 288.072745 -52.2 
L 288.547943 -52.2 
L 289.023142 -52.2 
L 289.498341 -52.2 
L 289.973539 -52.2 
L 290.448738 -52.2 
L 290.923936 -52.2 
L 291.399135 -52.2 
L 291.874334 -52.2 
L 292.349532 -52.2 
L 292.824731 -52.2 
L 293.29993 -52.2 
L 293.775128 -52.2 
L 294.250327 -52.2 
L 294.725526 -52.2 
L 295.200724 -52.2 
L 295.675923 -52.2 
L 296.151121 -52.2 
L 296.62632 -52.2 
L 297.101519 -52.2 
L 297.576717 -52.2 
L 298.051916 -52.2 
L 298.527115 -52.2 
L 299.002313 -52.2 
L 299.477512 -52.2 
L 299.95271 -52.2 
L 300.427909 -52.2 
L 300.903108 -52.2 
L 301.378306 -52.2 
L 301.853505 -52.2 
L 302.328704 -52.2 
L 302.803902 -52.2 
L 303.279101 -52.2 
L 303.754299 -52.2 
L 304.229498 -52.2 
L 304.704697 -52.2 
L 305.179895 -52.2 
L 305.655094 -52.2 
L 306.130293 -52.2 
L 306.605491 -52.2 
L 307.08069 -52.2 
L 307.555889 -52.2 
L 308.031087 -52.2 
L 308.506286 -52.2 
L 308.981484 -52.2 
L 309.456683 -52.2 
L 309.931882 -52.2 
L 310.40708 -52.2 
L 310.882279 -52.2 
L 311.357478 -52.2 
L 311.832676 -52.2 
L 312.307875 -52.2 
L 312.783073 -52.2 
L 313.258272 -52.2 
L 313.733471 -52.2 
L 314.208669 -52.2 
L 314.683868 -52.2 
L 315.159067 -52.2 
L 315.634265 -52.2 
L 316.109464 -52.2 
L 316.584662 -52.2 
L 317.059861 -52.2 
L 317.53506 -52.2 
L 318.010258 -52.2 
L 318.485457 -52.2 
L 318.960656 -52.2 
L 319.435854 -52.2 
L 319.911053 -52.2 
L 320.386252 -52.2 
L 320.86145 -52.2 
L 321.336649 -52.2 
L 321.811847 -52.2 
L 322.287046 -52.2 
L 322.762245 -52.2 
L 323.237443 -52.2 
L 323.712642 -52.2 
L 324.187841 -52.2 
L 324.663039 -52.2 
L 325.138238 -52.2 
L 325.613436 -52.2 
L 326.088635 -52.2 
L 326.563834 -52.2 
L 327.039032 -52.2 
L 327.514231 -52.2 
L 327.98943 -52.2 
L 328.464628 -52.2 
L 328.939827 -52.2 
L 329.415026 -52.2 
L 329.415026 -252.930031 
L 329.415026 -252.930031 
L 328.939827 -254.193481 
L 328.464628 -255.447048 
L 327.98943 -256.690448 
L 327.514231 -257.923401 
L 327.039032 -259.145627 
L 326.563834 -260.356847 
L 326.088635 -261.556784 
L 325.613436 -262.74516 
L 325.138238 -263.921702 
L 324.663039 -265.086136 
L 324.187841 -266.23819 
L 323.712642 -267.377596 
L 323.237443 -268.504084 
L 322.762245 -269.61739 
L 322.287046 -270.71725 
L 321.811847 -271.803401 
L 321.336649 -272.875585 
L 320.86145 -273.933545 
L 320.386252 -274.977027 
L 319.911053 -276.005778 
L 319.435854 -277.01955 
L 318.960656 -278.018098 
L 318.485457 -279.001176 
L 318.010258 -279.968546 
L 317.53506 -280.91997 
L 317.059861 -281.855214 
L 316.584662 -282.774048 
L 316.109464 -283.676244 
L 315.634265 -284.561579 
L 315.159067 -285.429832 
L 314.683868 -286.280787 
L 314.208669 -287.114231 
L 313.733471 -287.929955 
L 313.258272 -288.727755 
L 312.783073 -289.507429 
L 312.307875 -290.268781 
L 311.832676 -291.011618 
L 311.357478 -291.735751 
L 310.882279 -292.440998 
L 310.40708 -293.127177 
L 309.931882 -293.794114 
L 309.456683 -294.44164 
L 308.981484 -295.069586 
L 308.506286 -295.677794 
L 308.031087 -296.266106 
L 307.555889 -296.834371 
L 307.08069 -297.382442 
L 306.605491 -297.910178 
L 306.130293 -298.417442 
L 305.655094 -298.904104 
L 305.179895 -299.370036 
L 304.704697 -299.815118 
L 304.229498 -300.239234 
L 303.754299 -300.642274 
L 303.279101 -301.024132 
L 302.803902 -301.384709 
L 302.328704 -301.723911 
L 301.853505 -302.04165 
L 301.378306 -302.337841 
L 300.903108 -302.612408 
L 300.427909 -302.865278 
L 299.95271 -303.096385 
L 299.477512 -303.305669 
L 299.002313 -303.493075 
L 298.527115 -303.658553 
L 298.051916 -303.80206 
L 297.576717 -303.923558 
L 297.101519 -304.023015 
L 296.62632 -304.100405 
L 296.151121 -304.155708 
L 295.675923 -304.18891 
L 295.200724 -304.2 
L 294.725526 -304.188977 
L 294.250327 -304.155843 
L 293.775128 -304.100608 
L 293.29993 -304.023285 
L 292.824731 -303.923895 
L 292.349532 -303.802464 
L 291.874334 -303.659024 
L 291.399135 -303.493613 
L 290.923936 -303.306274 
L 290.448738 -303.097056 
L 289.973539 -302.866015 
L 289.498341 -302.613211 
L 289.023142 -302.33871 
L 288.547943 -302.042585 
L 288.072745 -301.724912 
L 287.597546 -301.385775 
L 287.122347 -301.025263 
L 286.647149 -300.64347 
L 286.17195 -300.240494 
L 285.696752 -299.816442 
L 285.221553 -299.371424 
L 284.746354 -298.905555 
L 284.271156 -298.418957 
L 283.795957 -297.911755 
L 283.320758 -297.384081 
L 282.84556 -296.836072 
L 282.370361 -296.267868 
L 281.895163 -295.679617 
L 281.419964 -295.07147 
L 280.944765 -294.443583 
L 280.469567 -293.796118 
L 279.994368 -293.129239 
L 279.519169 -292.443118 
L 279.043971 -291.73793 
L 278.568772 -291.013853 
L 278.093573 -290.271073 
L 277.618375 -289.509777 
L 277.143176 -288.730159 
L 276.667978 -287.932414 
L 276.192779 -287.116744 
L 275.71758 -286.283354 
L 275.242382 -285.432452 
L 274.767183 -284.564251 
L 274.291984 -283.678968 
L 273.816786 -282.776823 
L 273.341587 -281.85804 
L 272.866389 -280.922845 
L 272.39119 -279.97147 
L 271.915991 -279.004149 
L 271.440793 -278.021117 
L 270.965594 -277.022617 
L 270.490395 -276.008891 
L 270.015197 -274.980184 
L 269.539998 -273.936747 
L 269.064799 -272.878831 
L 268.589601 -271.80669 
L 268.114402 -270.720581 
L 267.639204 -269.620763 
L 267.164005 -268.507498 
L 266.688806 -267.381049 
L 266.213608 -266.241682 
L 265.738409 -265.089666 
L 265.26321 -263.925269 
L 264.788012 -262.748764 
L 264.312813 -261.560423 
L 263.837615 -260.360522 
L 263.362416 -259.149336 
L 262.887217 -257.927143 
L 262.412019 -256.694222 
L 261.93682 -255.450853 
L 261.461621 -254.197317 
L 260.986423 -252.933896 
L 260.511224 -251.660874 
L 260.036026 -250.378533 
L 259.560827 -249.087157 
L 259.085628 -247.787032 
L 258.61043 -246.478443 
L 258.135231 -245.161676 
L 257.660032 -243.837015 
L 257.184834 -242.504747 
L 256.709635 -241.165158 
L 256.234436 -239.818534 
L 255.759238 -238.46516 
L 255.284039 -237.105321 
L 254.808841 -235.739303 
L 254.333642 -234.36739 
L 253.858443 -232.989866 
L 253.383245 -231.607014 
L 252.908046 -230.219117 
L 252.432847 -228.826456 
L 251.957649 -227.429313 
L 251.48245 -226.027966 
L 251.007252 -224.622695 
L 250.532053 -223.213777 
L 250.056854 -221.801487 
L 249.581656 -220.386101 
L 249.106457 -218.967892 
L 248.631258 -217.547131 
L 248.15606 -216.124088 
L 247.680861 -214.699032 
L 247.205663 -213.272229 
L 246.730464 -211.843944 
L 246.255265 -210.41444 
L 245.780067 -208.983977 
L 245.304868 -207.552813 
L 244.829669 -206.121206 
L 244.354471 -204.68941 
L 243.879272 -203.257675 
L 243.404073 -201.826252 
L 242.928875 -200.395388 
L 242.453676 -198.965328 
L 241.978478 -197.536313 
L 241.503279 -196.108583 
L 241.02808 -194.682374 
L 240.552882 -193.257921 
L 240.077683 -191.835454 
L 239.602484 -190.415203 
L 239.127286 -188.997392 
L 238.652087 -187.582244 
L 238.176889 -186.169979 
L 237.70169 -184.760813 
L 237.226491 -183.354959 
L 236.751293 -181.952628 
L 236.276094 -180.554027 
L 235.800895 -179.159359 
L 235.325697 -177.768826 
L 234.850498 -176.382625 
L 234.375299 -175.000951 
L 233.900101 -173.623992 
L 233.424902 -172.251939 
L 232.949704 -170.884973 
L 232.474505 -169.523276 
L 231.999306 -168.167025 
L 231.524108 -166.816394 
L 231.048909 -165.471553 
L 230.57371 -164.132668 
L 230.098512 -162.799903 
L 229.623313 -161.473418 
L 229.148115 -160.153368 
L 228.672916 -158.839906 
L 228.197717 -157.533181 
L 227.722519 -156.233339 
L 227.24732 -154.94052 
L 226.772121 -153.654864 
L 226.296923 -152.376505 
L 225.821724 -151.105574 
L 225.346526 -149.842198 
L 224.871327 -148.586501 
L 224.396128 -147.338604 
L 223.92093 -146.098622 
L 223.445731 -144.86667 
L 222.970532 -143.642855 
L 222.495334 -142.427286 
L 222.020135 -141.220062 
L 221.544936 -140.021285 
L 221.069738 -138.831047 
L 220.594539 -137.649443 
L 220.119341 -136.476558 
L 219.644142 -135.312479 
L 219.168943 -134.157287 
L 218.693745 -133.011059 
L 218.218546 -131.87387 
L 217.743347 -130.74579 
L 217.268149 -129.626888 
L 216.79295 -128.517227 
L 216.317752 -127.416869 
L 215.842553 -126.325871 
L 215.367354 -125.244287 
L 214.892156 -124.172169 
L 214.416957 -123.109564 
L 213.941758 -122.056517 
L 213.46656 -121.01307 
L 212.991361 -119.97926 
L 212.516163 -118.955123 
L 212.040964 -117.940692 
L 211.565765 -116.935995 
L 211.090567 -115.941059 
L 210.615368 -114.955907 
L 210.140169 -113.980559 
L 209.664971 -113.015033 
L 209.189772 -112.059344 
L 208.714573 -111.113502 
L 208.239375 -110.177518 
L 207.764176 -109.251398 
L 207.288978 -108.335145 
L 206.813779 -107.42876 
L 206.33858 -106.532242 
L 205.863382 -105.645587 
L 205.388183 -104.768788 
L 204.912984 -103.901836 
L 204.437786 -103.04472 
L 203.962587 -102.197425 
L 203.487389 -101.359936 
L 203.01219 -100.532233 
L 202.536991 -99.714297 
L 202.061793 -98.906104 
L 201.586594 -98.10763 
L 201.111395 -97.318846 
L 200.636197 -96.539724 
L 200.160998 -95.770232 
L 199.685799 -95.010338 
L 199.210601 -94.260005 
L 198.735402 -93.519198 
L 198.260204 -92.787876 
L 197.785005 -92.066 
L 197.309806 -91.353527 
L 196.834608 -90.650412 
L 196.359409 -89.956611 
L 195.88421 -89.272075 
L 195.409012 -88.596756 
L 194.933813 -87.930603 
L 194.458615 -87.273564 
L 193.983416 -86.625586 
L 193.508217 -85.986615 
L 193.033019 -85.356593 
L 192.55782 -84.735465 
L 192.082621 -84.123171 
L 191.607423 -83.519651 
L 191.132224 -82.924844 
L 190.657026 -82.338689 
L 190.181827 -81.761122 
L 189.706628 -81.192079 
L 189.23143 -80.631495 
L 188.756231 -80.079304 
L 188.281032 -79.535438 
L 187.805834 -78.99983 
L 187.330635 -78.472411 
L 186.855436 -77.953111 
L 186.380238 -77.441861 
L 185.905039 -76.938589 
L 185.429841 -76.443224 
L 184.954642 -75.955694 
L 184.479443 -75.475924 
L 184.004245 -75.003843 
L 183.529046 -74.539377 
L 183.053847 -74.08245 
L 182.578649 -73.632988 
L 182.10345 -73.190916 
L 181.628252 -72.756158 
L 181.153053 -72.328638 
L 180.677854 -71.90828 
L 180.202656 -71.495008 
L 179.727457 -71.088743 
L 179.252258 -70.689411 
L 178.77706 -70.296932 
L 178.301861 -69.911231 
L 177.826663 -69.532229 
L 177.351464 -69.159848 
L 176.876265 -68.794012 
L 176.401067 -68.434643 
L 175.925868 -68.081663 
L 175.450669 -67.734994 
L 174.975471 -67.394559 
L 174.500272 -67.060279 
L 174.025073 -66.732079 
L 173.549875 -66.40988 
L 173.074676 -66.093606 
L 172.599478 -65.783179 
L 172.124279 -65.478523 
L 171.64908 -65.17956 
L 171.173882 -64.886216 
L 170.698683 -64.598413 
L 170.223484 -64.316076 
L 169.748286 -64.03913 
L 169.273087 -63.767498 
L 168.797889 -63.501107 
L 168.32269 -63.239882 
L 167.847491 -62.983749 
L 167.372293 -62.732634 
L 166.897094 -62.486464 
L 166.421895 -62.245166 
L 165.946697 -62.008667 
L 165.471498 -61.776896 
L 164.996299 -61.549781 
L 164.521101 -61.327251 
L 164.045902 -61.109236 
L 163.570704 -60.895665 
L 163.095505 -60.686469 
L 162.620306 -60.481579 
L 162.145108 -60.280926 
L 161.669909 -60.084443 
L 161.19471 -59.892062 
L 160.719512 -59.703717 
L 160.244313 -59.519342 
L 159.769115 -59.33887 
L 159.293916 -59.162237 
L 158.818717 -58.989379 
L 158.343519 -58.820231 
L 157.86832 -58.654731 
L 157.393121 -58.492816 
L 156.917923 -58.334424 
L 156.442724 -58.179495 
L 155.967526 -58.027966 
L 155.492327 -57.87978 
L 155.017128 -57.734875 
L 154.54193 -57.593194 
L 154.066731 -57.454679 
L 153.591532 -57.319272 
L 153.116334 -57.186916 
L 152.641135 -57.057556 
L 152.165936 -56.931137 
L 151.690738 -56.807603 
L 151.215539 -56.686901 
L 150.740341 -56.568978 
L 150.265142 -56.45378 
L 149.789943 -56.341257 
L 149.314745 -56.231356 
L 148.839546 -56.124028 
L 148.364347 -56.019222 
L 147.889149 -55.916888 
L 147.41395 -55.81698 
L 146.938752 -55.719448 
L 146.463553 -55.624245 
L 145.988354 -55.531326 
L 145.513156 -55.440643 
L 145.037957 -55.352152 
L 144.562758 -55.265809 
L 144.08756 -55.181569 
L 143.612361 -55.099389 
L 143.137163 -55.019227 
L 142.661964 -54.941041 
L 142.186765 -54.864789 
L 141.711567 -54.790431 
L 141.236368 -54.717927 
L 140.761169 -54.647238 
L 140.285971 -54.578324 
L 139.810772 -54.511149 
L 139.335573 -54.445673 
L 138.860375 -54.381861 
L 138.385176 -54.319676 
L 137.909978 -54.259083 
L 137.434779 -54.200047 
L 136.95958 -54.142532 
L 136.484382 -54.086506 
L 136.009183 -54.031935 
L 135.533984 -53.978787 
L 135.058786 -53.927029 
L 134.583587 -53.87663 
L 134.108389 -53.827558 
L 133.63319 -53.779785 
L 133.157991 -53.733279 
L 132.682793 -53.688011 
L 132.207594 -53.643954 
L 131.732395 -53.601077 
L 131.257197 -53.559355 
L 130.781998 -53.518759 
L 130.306799 -53.479264 
L 129.831601 -53.440842 
L 129.356402 -53.403469 
L 128.881204 -53.367119 
L 128.406005 -53.331768 
L 127.930806 -53.297391 
L 127.455608 -53.263965 
L 126.980409 -53.231466 
L 126.50521 -53.199872 
L 126.030012 -53.169161 
L 125.554813 -53.139311 
L 125.079615 -53.110301 
L 124.604416 -53.082109 
L 124.129217 -53.054715 
L 123.654019 -53.028099 
L 123.17882 -53.002242 
L 122.703621 -52.977123 
L 122.228423 -52.952725 
L 121.753224 -52.92903 
L 121.278026 -52.906018 
L 120.802827 -52.883672 
L 120.327628 -52.861976 
L 119.85243 -52.840912 
L 119.377231 -52.820464 
L 118.902032 -52.800615 
L 118.426834 -52.78135 
L 117.951635 -52.762654 
L 117.476436 -52.744512 
L 117.001238 -52.726908 
L 116.526039 -52.709828 
L 116.050841 -52.693259 
L 115.575642 -52.677187 
L 115.100443 -52.661597 
L 114.625245 -52.646478 
L 114.150046 -52.631816 
L 113.674847 -52.617599 
L 113.199649 -52.603815 
L 112.72445 -52.590451 
L 112.249252 -52.577497 
L 111.774053 -52.56494 
L 111.298854 -52.55277 
L 110.823656 -52.540976 
L 110.348457 -52.529547 
L 109.873258 -52.518473 
L 109.39806 -52.507745 
L 108.922861 -52.497352 
L 108.447663 -52.487284 
L 107.972464 -52.477533 
L 107.497265 -52.46809 
L 107.022067 -52.458945 
L 106.546868 -52.45009 
L 106.071669 -52.441517 
L 105.596471 -52.433217 
L 105.121272 -52.425183 
L 104.646073 -52.417406 
L 104.170875 -52.409879 
L 103.695676 -52.402596 
L 103.220478 -52.395547 
L 102.745279 -52.388728 
L 102.27008 -52.38213 
L 101.794882 -52.375748 
L 101.319683 -52.369574 
L 100.844484 -52.363603 
L 100.369286 -52.357828 
L 99.894087 -52.352244 
L 99.418889 -52.346845 
L 98.94369 -52.341624 
L 98.468491 -52.336577 
L 97.993293 -52.331699 
L 97.518094 -52.326983 
L 97.042895 -52.322426 
L 96.567697 -52.318022 
L 96.092498 -52.313766 
L 95.6173 -52.309654 
L 95.142101 -52.305682 
L 94.666902 -52.301844 
L 94.191704 -52.298137 
L 93.716505 -52.294557 
L 93.241306 -52.291099 
L 92.766108 -52.28776 
L 92.290909 -52.284537 
z
" style="stroke: #6495ed; stroke-opacity: 0.1"/>
    </defs>
    <g clip-path="url(#p45e2238d88)">
     <use xlink:href="#m5cb5fe5d71" x="0" y="360" style="fill: #6495ed; fill-opacity: 0.1; stroke: #6495ed; stroke-opacity: 0.1"/>
    </g>
   </g>
   <g id="matplotlib.axis_1">
    <g id="xtick_1">
     <g id="line2d_1">
      <path d="M 92.290909 320.4 
L 92.290909 43.2 
" clip-path="url(#p45e2238d88)" style="fill: none; stroke-dasharray: 2.96,1.28; stroke-dashoffset: 0; stroke: #b0b0b0; stroke-opacity: 0.5; stroke-width: 0.8"/>
     </g>
     <g id="line2d_2">
      <defs>
       <path id="ma617fbaf72" d="M 0 0 
L 0 3.5 
" style="stroke: #000000; stroke-width: 0.8"/>
      </defs>
      <g>
       <use xlink:href="#ma617fbaf72" x="92.290909" y="320.4" style="stroke: #000000; stroke-width: 0.8"/>
      </g>
     </g>
     <g id="text_1">
      <!-- −4 -->
      <g transform="translate(84.919815 334.998438) scale(0.1 -0.1)">
       <defs>
        <path id="DejaVuSans-2212" d="M 678 2272 
L 4684 2272 
L 4684 1741 
L 678 1741 
L 678 2272 
z
" transform="scale(0.015625)"/>
        <path id="DejaVuSans-34" d="M 2419 4116 
L 825 1625 
L 2419 1625 
L 2419 4116 
z
M 2253 4666 
L 3047 4666 
L 3047 1625 
L 3713 1625 
L 3713 1100 
L 3047 1100 
L 3047 0 
L 2419 0 
L 2419 1100 
L 313 1100 
L 313 1709 
L 2253 4666 
z
" transform="scale(0.015625)"/>
       </defs>
       <use xlink:href="#DejaVuSans-2212"/>
       <use xlink:href="#DejaVuSans-34" transform="translate(83.789062 0)"/>
      </g>
     </g>
    </g>
    <g id="xtick_2">
     <g id="line2d_3">
      <path d="M 143.018182 320.4 
L 143.018182 43.2 
" clip-path="url(#p45e2238d88)" style="fill: none; stroke-dasharray: 2.96,1.28; stroke-dashoffset: 0; stroke: #b0b0b0; stroke-opacity: 0.5; stroke-width: 0.8"/>
     </g>
     <g id="line2d_4">
      <g>
       <use xlink:href="#ma617fbaf72" x="143.018182" y="320.4" style="stroke: #000000; stroke-width: 0.8"/>
      </g>
     </g>
     <g id="text_2">
      <!-- −3 -->
      <g transform="translate(135.647088 334.998438) scale(0.1 -0.1)">
       <defs>
        <path id="DejaVuSans-33" d="M 2597 2516 
Q 3050 2419 3304 2112 
Q 3559 1806 3559 1356 
Q 3559 666 3084 287 
Q 2609 -91 1734 -91 
Q 1441 -91 1130 -33 
Q 819 25 488 141 
L 488 750 
Q 750 597 1062 519 
Q 1375 441 1716 441 
Q 2309 441 2620 675 
Q 2931 909 2931 1356 
Q 2931 1769 2642 2001 
Q 2353 2234 1838 2234 
L 1294 2234 
L 1294 2753 
L 1863 2753 
Q 2328 2753 2575 2939 
Q 2822 3125 2822 3475 
Q 2822 3834 2567 4026 
Q 2313 4219 1838 4219 
Q 1578 4219 1281 4162 
Q 984 4106 628 3988 
L 628 4550 
Q 988 4650 1302 4700 
Q 1616 4750 1894 4750 
Q 2613 4750 3031 4423 
Q 3450 4097 3450 3541 
Q 3450 3153 3228 2886 
Q 3006 2619 2597 2516 
z
" transform="scale(0.015625)"/>
       </defs>
       <use xlink:href="#DejaVuSans-2212"/>
       <use xlink:href="#DejaVuSans-33" transform="translate(83.789062 0)"/>
      </g>
     </g>
    </g>
    <g id="xtick_3">
     <g id="line2d_5">
      <path d="M 193.745455 320.4 
L 193.745455 43.2 
" clip-path="url(#p45e2238d88)" style="fill: none; stroke-dasharray: 2.96,1.28; stroke-dashoffset: 0; stroke: #b0b0b0; stroke-opacity: 0.5; stroke-width: 0.8"/>
     </g>
     <g id="line2d_6">
      <g>
       <use xlink:href="#ma617fbaf72" x="193.745455" y="320.4" style="stroke: #000000; stroke-width: 0.8"/>
      </g>
     </g>
     <g id="text_3">
      <!-- −2 -->
      <g transform="translate(186.374361 334.998438) scale(0.1 -0.1)">
       <defs>
        <path id="DejaVuSans-32" d="M 1228 531 
L 3431 531 
L 3431 0 
L 469 0 
L 469 531 
Q 828 903 1448 1529 
Q 2069 2156 2228 2338 
Q 2531 2678 2651 2914 
Q 2772 3150 2772 3378 
Q 2772 3750 2511 3984 
Q 2250 4219 1831 4219 
Q 1534 4219 1204 4116 
Q 875 4013 500 3803 
L 500 4441 
Q 881 4594 1212 4672 
Q 1544 4750 1819 4750 
Q 2544 4750 2975 4387 
Q 3406 4025 3406 3419 
Q 3406 3131 3298 2873 
Q 3191 2616 2906 2266 
Q 2828 2175 2409 1742 
Q 1991 1309 1228 531 
z
" transform="scale(0.015625)"/>
       </defs>
       <use xlink:href="#DejaVuSans-2212"/>
       <use xlink:href="#DejaVuSans-32" transform="translate(83.789062 0)"/>
      </g>
     </g>
    </g>
    <g id="xtick_4">
     <g id="line2d_7">
      <path d="M 244.472727 320.4 
L 244.472727 43.2 
" clip-path="url(#p45e2238d88)" style="fill: none; stroke-dasharray: 2.96,1.28; stroke-dashoffset: 0; stroke: #b0b0b0; stroke-opacity: 0.5; stroke-width: 0.8"/>
     </g>
     <g id="line2d_8">
      <g>
       <use xlink:href="#ma617fbaf72" x="244.472727" y="320.4" style="stroke: #000000; stroke-width: 0.8"/>
      </g>
     </g>
     <g id="text_4">
      <!-- −1 -->
      <g transform="translate(237.101634 334.998438) scale(0.1 -0.1)">
       <defs>
        <path id="DejaVuSans-31" d="M 794 531 
L 1825 531 
L 1825 4091 
L 703 3866 
L 703 4441 
L 1819 4666 
L 2450 4666 
L 2450 531 
L 3481 531 
L 3481 0 
L 794 0 
L 794 531 
z
" transform="scale(0.015625)"/>
       </defs>
       <use xlink:href="#DejaVuSans-2212"/>
       <use xlink:href="#DejaVuSans-31" transform="translate(83.789062 0)"/>
      </g>
     </g>
    </g>
    <g id="xtick_5">
     <g id="line2d_9">
      <path d="M 295.2 320.4 
L 295.2 43.2 
" clip-path="url(#p45e2238d88)" style="fill: none; stroke-dasharray: 2.96,1.28; stroke-dashoffset: 0; stroke: #b0b0b0; stroke-opacity: 0.5; stroke-width: 0.8"/>
     </g>
     <g id="line2d_10">
      <g>
       <use xlink:href="#ma617fbaf72" x="295.2" y="320.4" style="stroke: #000000; stroke-width: 0.8"/>
      </g>
     </g>
     <g id="text_5">
      <!-- 0 -->
      <g transform="translate(292.01875 334.998438) scale(0.1 -0.1)">
       <defs>
        <path id="DejaVuSans-30" d="M 2034 4250 
Q 1547 4250 1301 3770 
Q 1056 3291 1056 2328 
Q 1056 1369 1301 889 
Q 1547 409 2034 409 
Q 2525 409 2770 889 
Q 3016 1369 3016 2328 
Q 3016 3291 2770 3770 
Q 2525 4250 2034 4250 
z
M 2034 4750 
Q 2819 4750 3233 4129 
Q 3647 3509 3647 2328 
Q 3647 1150 3233 529 
Q 2819 -91 2034 -91 
Q 1250 -91 836 529 
Q 422 1150 422 2328 
Q 422 3509 836 4129 
Q 1250 4750 2034 4750 
z
" transform="scale(0.015625)"/>
       </defs>
       <use xlink:href="#DejaVuSans-30"/>
      </g>
     </g>
    </g>
    <g id="xtick_6">
     <g id="line2d_11">
      <path d="M 345.927273 320.4 
L 345.927273 43.2 
" clip-path="url(#p45e2238d88)" style="fill: none; stroke-dasharray: 2.96,1.28; stroke-dashoffset: 0; stroke: #b0b0b0; stroke-opacity: 0.5; stroke-width: 0.8"/>
     </g>
     <g id="line2d_12">
      <g>
       <use xlink:href="#ma617fbaf72" x="345.927273" y="320.4" style="stroke: #000000; stroke-width: 0.8"/>
      </g>
     </g>
     <g id="text_6">
      <!-- 1 -->
      <g transform="translate(342.746023 334.998438) scale(0.1 -0.1)">
       <use xlink:href="#DejaVuSans-31"/>
      </g>
     </g>
    </g>
    <g id="xtick_7">
     <g id="line2d_13">
      <path d="M 396.654545 320.4 
L 396.654545 43.2 
" clip-path="url(#p45e2238d88)" style="fill: none; stroke-dasharray: 2.96,1.28; stroke-dashoffset: 0; stroke: #b0b0b0; stroke-opacity: 0.5; stroke-width: 0.8"/>
     </g>
     <g id="line2d_14">
      <g>
       <use xlink:href="#ma617fbaf72" x="396.654545" y="320.4" style="stroke: #000000; stroke-width: 0.8"/>
      </g>
     </g>
     <g id="text_7">
      <!-- 2 -->
      <g transform="translate(393.473295 334.998438) scale(0.1 -0.1)">
       <use xlink:href="#DejaVuSans-32"/>
      </g>
     </g>
    </g>
    <g id="xtick_8">
     <g id="line2d_15">
      <path d="M 447.381818 320.4 
L 447.381818 43.2 
" clip-path="url(#p45e2238d88)" style="fill: none; stroke-dasharray: 2.96,1.28; stroke-dashoffset: 0; stroke: #b0b0b0; stroke-opacity: 0.5; stroke-width: 0.8"/>
     </g>
     <g id="line2d_16">
      <g>
       <use xlink:href="#ma617fbaf72" x="447.381818" y="320.4" style="stroke: #000000; stroke-width: 0.8"/>
      </g>
     </g>
     <g id="text_8">
      <!-- 3 -->
      <g transform="translate(444.200568 334.998438) scale(0.1 -0.1)">
       <use xlink:href="#DejaVuSans-33"/>
      </g>
     </g>
    </g>
    <g id="xtick_9">
     <g id="line2d_17">
      <path d="M 498.109091 320.4 
L 498.109091 43.2 
" clip-path="url(#p45e2238d88)" style="fill: none; stroke-dasharray: 2.96,1.28; stroke-dashoffset: 0; stroke: #b0b0b0; stroke-opacity: 0.5; stroke-width: 0.8"/>
     </g>
     <g id="line2d_18">
      <g>
       <use xlink:href="#ma617fbaf72" x="498.109091" y="320.4" style="stroke: #000000; stroke-width: 0.8"/>
      </g>
     </g>
     <g id="text_9">
      <!-- 4 -->
      <g transform="translate(494.927841 334.998438) scale(0.1 -0.1)">
       <use xlink:href="#DejaVuSans-34"/>
      </g>
     </g>
    </g>
    <g id="text_10">
     <!-- x -->
     <g transform="translate(292.240625 348.676562) scale(0.1 -0.1)">
      <defs>
       <path id="DejaVuSans-78" d="M 3513 3500 
L 2247 1797 
L 3578 0 
L 2900 0 
L 1881 1375 
L 863 0 
L 184 0 
L 1544 1831 
L 300 3500 
L 978 3500 
L 1906 2253 
L 2834 3500 
L 3513 3500 
z
" transform="scale(0.015625)"/>
      </defs>
      <use xlink:href="#DejaVuSans-78"/>
     </g>
    </g>
   </g>
   <g id="matplotlib.axis_2">
    <g id="ytick_1">
     <g id="line2d_19">
      <path d="M 72 307.8 
L 518.4 307.8 
" clip-path="url(#p45e2238d88)" style="fill: none; stroke-dasharray: 2.96,1.28; stroke-dashoffset: 0; stroke: #b0b0b0; stroke-opacity: 0.5; stroke-width: 0.8"/>
     </g>
     <g id="line2d_20">
      <defs>
       <path id="meef551185b" d="M 0 0 
L -3.5 0 
" style="stroke: #000000; stroke-width: 0.8"/>
      </defs>
      <g>
       <use xlink:href="#meef551185b" x="72" y="307.8" style="stroke: #000000; stroke-width: 0.8"/>
      </g>
     </g>
     <g id="text_11">
      <!-- 0.00 -->
      <g transform="translate(42.734375 311.599219) scale(0.1 -0.1)">
       <defs>
        <path id="DejaVuSans-2e" d="M 684 794 
L 1344 794 
L 1344 0 
L 684 0 
L 684 794 
z
" transform="scale(0.015625)"/>
       </defs>
       <use xlink:href="#DejaVuSans-30"/>
       <use xlink:href="#DejaVuSans-2e" transform="translate(63.623047 0)"/>
       <use xlink:href="#DejaVuSans-30" transform="translate(95.410156 0)"/>
       <use xlink:href="#DejaVuSans-30" transform="translate(159.033203 0)"/>
      </g>
     </g>
    </g>
    <g id="ytick_2">
     <g id="line2d_21">
      <path d="M 72 276.216484 
L 518.4 276.216484 
" clip-path="url(#p45e2238d88)" style="fill: none; stroke-dasharray: 2.96,1.28; stroke-dashoffset: 0; stroke: #b0b0b0; stroke-opacity: 0.5; stroke-width: 0.8"/>
     </g>
     <g id="line2d_22">
      <g>
       <use xlink:href="#meef551185b" x="72" y="276.216484" style="stroke: #000000; stroke-width: 0.8"/>
      </g>
     </g>
     <g id="text_12">
      <!-- 0.05 -->
      <g transform="translate(42.734375 280.015702) scale(0.1 -0.1)">
       <defs>
        <path id="DejaVuSans-35" d="M 691 4666 
L 3169 4666 
L 3169 4134 
L 1269 4134 
L 1269 2991 
Q 1406 3038 1543 3061 
Q 1681 3084 1819 3084 
Q 2600 3084 3056 2656 
Q 3513 2228 3513 1497 
Q 3513 744 3044 326 
Q 2575 -91 1722 -91 
Q 1428 -91 1123 -41 
Q 819 9 494 109 
L 494 744 
Q 775 591 1075 516 
Q 1375 441 1709 441 
Q 2250 441 2565 725 
Q 2881 1009 2881 1497 
Q 2881 1984 2565 2268 
Q 2250 2553 1709 2553 
Q 1456 2553 1204 2497 
Q 953 2441 691 2322 
L 691 4666 
z
" transform="scale(0.015625)"/>
       </defs>
       <use xlink:href="#DejaVuSans-30"/>
       <use xlink:href="#DejaVuSans-2e" transform="translate(63.623047 0)"/>
       <use xlink:href="#DejaVuSans-30" transform="translate(95.410156 0)"/>
       <use xlink:href="#DejaVuSans-35" transform="translate(159.033203 0)"/>
      </g>
     </g>
    </g>
    <g id="ytick_3">
     <g id="line2d_23">
      <path d="M 72 244.632967 
L 518.4 244.632967 
" clip-path="url(#p45e2238d88)" style="fill: none; stroke-dasharray: 2.96,1.28; stroke-dashoffset: 0; stroke: #b0b0b0; stroke-opacity: 0.5; stroke-width: 0.8"/>
     </g>
     <g id="line2d_24">
      <g>
       <use xlink:href="#meef551185b" x="72" y="244.632967" style="stroke: #000000; stroke-width: 0.8"/>
      </g>
     </g>
     <g id="text_13">
      <!-- 0.10 -->
      <g transform="translate(42.734375 248.432186) scale(0.1 -0.1)">
       <use xlink:href="#DejaVuSans-30"/>
       <use xlink:href="#DejaVuSans-2e" transform="translate(63.623047 0)"/>
       <use xlink:href="#DejaVuSans-31" transform="translate(95.410156 0)"/>
       <use xlink:href="#DejaVuSans-30" transform="translate(159.033203 0)"/>
      </g>
     </g>
    </g>
    <g id="ytick_4">
     <g id="line2d_25">
      <path d="M 72 213.049451 
L 518.4 213.049451 
" clip-path="url(#p45e2238d88)" style="fill: none; stroke-dasharray: 2.96,1.28; stroke-dashoffset: 0; stroke: #b0b0b0; stroke-opacity: 0.5; stroke-width: 0.8"/>
     </g>
     <g id="line2d_26">
      <g>
       <use xlink:href="#meef551185b" x="72" y="213.049451" style="stroke: #000000; stroke-width: 0.8"/>
      </g>
     </g>
     <g id="text_14">
      <!-- 0.15 -->
      <g transform="translate(42.734375 216.84867) scale(0.1 -0.1)">
       <use xlink:href="#DejaVuSans-30"/>
       <use xlink:href="#DejaVuSans-2e" transform="translate(63.623047 0)"/>
       <use xlink:href="#DejaVuSans-31" transform="translate(95.410156 0)"/>
       <use xlink:href="#DejaVuSans-35" transform="translate(159.033203 0)"/>
      </g>
     </g>
    </g>
    <g id="ytick_5">
     <g id="line2d_27">
      <path d="M 72 181.465935 
L 518.4 181.465935 
" clip-path="url(#p45e2238d88)" style="fill: none; stroke-dasharray: 2.96,1.28; stroke-dashoffset: 0; stroke: #b0b0b0; stroke-opacity: 0.5; stroke-width: 0.8"/>
     </g>
     <g id="line2d_28">
      <g>
       <use xlink:href="#meef551185b" x="72" y="181.465935" style="stroke: #000000; stroke-width: 0.8"/>
      </g>
     </g>
     <g id="text_15">
      <!-- 0.20 -->
      <g transform="translate(42.734375 185.265154) scale(0.1 -0.1)">
       <use xlink:href="#DejaVuSans-30"/>
       <use xlink:href="#DejaVuSans-2e" transform="translate(63.623047 0)"/>
       <use xlink:href="#DejaVuSans-32" transform="translate(95.410156 0)"/>
       <use xlink:href="#DejaVuSans-30" transform="translate(159.033203 0)"/>
      </g>
     </g>
    </g>
    <g id="ytick_6">
     <g id="line2d_29">
      <path d="M 72 149.882419 
L 518.4 149.882419 
" clip-path="url(#p45e2238d88)" style="fill: none; stroke-dasharray: 2.96,1.28; stroke-dashoffset: 0; stroke: #b0b0b0; stroke-opacity: 0.5; stroke-width: 0.8"/>
     </g>
     <g id="line2d_30">
      <g>
       <use xlink:href="#meef551185b" x="72" y="149.882419" style="stroke: #000000; stroke-width: 0.8"/>
      </g>
     </g>
     <g id="text_16">
      <!-- 0.25 -->
      <g transform="translate(42.734375 153.681637) scale(0.1 -0.1)">
       <use xlink:href="#DejaVuSans-30"/>
       <use xlink:href="#DejaVuSans-2e" transform="translate(63.623047 0)"/>
       <use xlink:href="#DejaVuSans-32" transform="translate(95.410156 0)"/>
       <use xlink:href="#DejaVuSans-35" transform="translate(159.033203 0)"/>
      </g>
     </g>
    </g>
    <g id="ytick_7">
     <g id="line2d_31">
      <path d="M 72 118.298902 
L 518.4 118.298902 
" clip-path="url(#p45e2238d88)" style="fill: none; stroke-dasharray: 2.96,1.28; stroke-dashoffset: 0; stroke: #b0b0b0; stroke-opacity: 0.5; stroke-width: 0.8"/>
     </g>
     <g id="line2d_32">
      <g>
       <use xlink:href="#meef551185b" x="72" y="118.298902" style="stroke: #000000; stroke-width: 0.8"/>
      </g>
     </g>
     <g id="text_17">
      <!-- 0.30 -->
      <g transform="translate(42.734375 122.098121) scale(0.1 -0.1)">
       <use xlink:href="#DejaVuSans-30"/>
       <use xlink:href="#DejaVuSans-2e" transform="translate(63.623047 0)"/>
       <use xlink:href="#DejaVuSans-33" transform="translate(95.410156 0)"/>
       <use xlink:href="#DejaVuSans-30" transform="translate(159.033203 0)"/>
      </g>
     </g>
    </g>
    <g id="ytick_8">
     <g id="line2d_33">
      <path d="M 72 86.715386 
L 518.4 86.715386 
" clip-path="url(#p45e2238d88)" style="fill: none; stroke-dasharray: 2.96,1.28; stroke-dashoffset: 0; stroke: #b0b0b0; stroke-opacity: 0.5; stroke-width: 0.8"/>
     </g>
     <g id="line2d_34">
      <g>
       <use xlink:href="#meef551185b" x="72" y="86.715386" style="stroke: #000000; stroke-width: 0.8"/>
      </g>
     </g>
     <g id="text_18">
      <!-- 0.35 -->
      <g transform="translate(42.734375 90.514605) scale(0.1 -0.1)">
       <use xlink:href="#DejaVuSans-30"/>
       <use xlink:href="#DejaVuSans-2e" transform="translate(63.623047 0)"/>
       <use xlink:href="#DejaVuSans-33" transform="translate(95.410156 0)"/>
       <use xlink:href="#DejaVuSans-35" transform="translate(159.033203 0)"/>
      </g>
     </g>
    </g>
    <g id="ytick_9">
     <g id="line2d_35">
      <path d="M 72 55.13187 
L 518.4 55.13187 
" clip-path="url(#p45e2238d88)" style="fill: none; stroke-dasharray: 2.96,1.28; stroke-dashoffset: 0; stroke: #b0b0b0; stroke-opacity: 0.5; stroke-width: 0.8"/>
     </g>
     <g id="line2d_36">
      <g>
       <use xlink:href="#meef551185b" x="72" y="55.13187" style="stroke: #000000; stroke-width: 0.8"/>
      </g>
     </g>
     <g id="text_19">
      <!-- 0.40 -->
      <g transform="translate(42.734375 58.931089) scale(0.1 -0.1)">
       <use xlink:href="#DejaVuSans-30"/>
       <use xlink:href="#DejaVuSans-2e" transform="translate(63.623047 0)"/>
       <use xlink:href="#DejaVuSans-34" transform="translate(95.410156 0)"/>
       <use xlink:href="#DejaVuSans-30" transform="translate(159.033203 0)"/>
      </g>
     </g>
    </g>
    <g id="text_20">
     <!-- Probability Density -->
     <g transform="translate(36.654687 228.826562) rotate(-90) scale(0.1 -0.1)">
      <defs>
       <path id="DejaVuSans-50" d="M 1259 4147 
L 1259 2394 
L 2053 2394 
Q 2494 2394 2734 2622 
Q 2975 2850 2975 3272 
Q 2975 3691 2734 3919 
Q 2494 4147 2053 4147 
L 1259 4147 
z
M 628 4666 
L 2053 4666 
Q 2838 4666 3239 4311 
Q 3641 3956 3641 3272 
Q 3641 2581 3239 2228 
Q 2838 1875 2053 1875 
L 1259 1875 
L 1259 0 
L 628 0 
L 628 4666 
z
" transform="scale(0.015625)"/>
       <path id="DejaVuSans-72" d="M 2631 2963 
Q 2534 3019 2420 3045 
Q 2306 3072 2169 3072 
Q 1681 3072 1420 2755 
Q 1159 2438 1159 1844 
L 1159 0 
L 581 0 
L 581 3500 
L 1159 3500 
L 1159 2956 
Q 1341 3275 1631 3429 
Q 1922 3584 2338 3584 
Q 2397 3584 2469 3576 
Q 2541 3569 2628 3553 
L 2631 2963 
z
" transform="scale(0.015625)"/>
       <path id="DejaVuSans-6f" d="M 1959 3097 
Q 1497 3097 1228 2736 
Q 959 2375 959 1747 
Q 959 1119 1226 758 
Q 1494 397 1959 397 
Q 2419 397 2687 759 
Q 2956 1122 2956 1747 
Q 2956 2369 2687 2733 
Q 2419 3097 1959 3097 
z
M 1959 3584 
Q 2709 3584 3137 3096 
Q 3566 2609 3566 1747 
Q 3566 888 3137 398 
Q 2709 -91 1959 -91 
Q 1206 -91 779 398 
Q 353 888 353 1747 
Q 353 2609 779 3096 
Q 1206 3584 1959 3584 
z
" transform="scale(0.015625)"/>
       <path id="DejaVuSans-62" d="M 3116 1747 
Q 3116 2381 2855 2742 
Q 2594 3103 2138 3103 
Q 1681 3103 1420 2742 
Q 1159 2381 1159 1747 
Q 1159 1113 1420 752 
Q 1681 391 2138 391 
Q 2594 391 2855 752 
Q 3116 1113 3116 1747 
z
M 1159 2969 
Q 1341 3281 1617 3432 
Q 1894 3584 2278 3584 
Q 2916 3584 3314 3078 
Q 3713 2572 3713 1747 
Q 3713 922 3314 415 
Q 2916 -91 2278 -91 
Q 1894 -91 1617 61 
Q 1341 213 1159 525 
L 1159 0 
L 581 0 
L 581 4863 
L 1159 4863 
L 1159 2969 
z
" transform="scale(0.015625)"/>
       <path id="DejaVuSans-61" d="M 2194 1759 
Q 1497 1759 1228 1600 
Q 959 1441 959 1056 
Q 959 750 1161 570 
Q 1363 391 1709 391 
Q 2188 391 2477 730 
Q 2766 1069 2766 1631 
L 2766 1759 
L 2194 1759 
z
M 3341 1997 
L 3341 0 
L 2766 0 
L 2766 531 
Q 2569 213 2275 61 
Q 1981 -91 1556 -91 
Q 1019 -91 701 211 
Q 384 513 384 1019 
Q 384 1609 779 1909 
Q 1175 2209 1959 2209 
L 2766 2209 
L 2766 2266 
Q 2766 2663 2505 2880 
Q 2244 3097 1772 3097 
Q 1472 3097 1187 3025 
Q 903 2953 641 2809 
L 641 3341 
Q 956 3463 1253 3523 
Q 1550 3584 1831 3584 
Q 2591 3584 2966 3190 
Q 3341 2797 3341 1997 
z
" transform="scale(0.015625)"/>
       <path id="DejaVuSans-69" d="M 603 3500 
L 1178 3500 
L 1178 0 
L 603 0 
L 603 3500 
z
M 603 4863 
L 1178 4863 
L 1178 4134 
L 603 4134 
L 603 4863 
z
" transform="scale(0.015625)"/>
       <path id="DejaVuSans-6c" d="M 603 4863 
L 1178 4863 
L 1178 0 
L 603 0 
L 603 4863 
z
" transform="scale(0.015625)"/>
       <path id="DejaVuSans-74" d="M 1172 4494 
L 1172 3500 
L 2356 3500 
L 2356 3053 
L 1172 3053 
L 1172 1153 
Q 1172 725 1289 603 
Q 1406 481 1766 481 
L 2356 481 
L 2356 0 
L 1766 0 
Q 1100 0 847 248 
Q 594 497 594 1153 
L 594 3053 
L 172 3053 
L 172 3500 
L 594 3500 
L 594 4494 
L 1172 4494 
z
" transform="scale(0.015625)"/>
       <path id="DejaVuSans-79" d="M 2059 -325 
Q 1816 -950 1584 -1140 
Q 1353 -1331 966 -1331 
L 506 -1331 
L 506 -850 
L 844 -850 
Q 1081 -850 1212 -737 
Q 1344 -625 1503 -206 
L 1606 56 
L 191 3500 
L 800 3500 
L 1894 763 
L 2988 3500 
L 3597 3500 
L 2059 -325 
z
" transform="scale(0.015625)"/>
       <path id="DejaVuSans-20" transform="scale(0.015625)"/>
       <path id="DejaVuSans-44" d="M 1259 4147 
L 1259 519 
L 2022 519 
Q 2988 519 3436 956 
Q 3884 1394 3884 2338 
Q 3884 3275 3436 3711 
Q 2988 4147 2022 4147 
L 1259 4147 
z
M 628 4666 
L 1925 4666 
Q 3281 4666 3915 4102 
Q 4550 3538 4550 2338 
Q 4550 1131 3912 565 
Q 3275 0 1925 0 
L 628 0 
L 628 4666 
z
" transform="scale(0.015625)"/>
       <path id="DejaVuSans-65" d="M 3597 1894 
L 3597 1613 
L 953 1613 
Q 991 1019 1311 708 
Q 1631 397 2203 397 
Q 2534 397 2845 478 
Q 3156 559 3463 722 
L 3463 178 
Q 3153 47 2828 -22 
Q 2503 -91 2169 -91 
Q 1331 -91 842 396 
Q 353 884 353 1716 
Q 353 2575 817 3079 
Q 1281 3584 2069 3584 
Q 2775 3584 3186 3129 
Q 3597 2675 3597 1894 
z
M 3022 2063 
Q 3016 2534 2758 2815 
Q 2500 3097 2075 3097 
Q 1594 3097 1305 2825 
Q 1016 2553 972 2059 
L 3022 2063 
z
" transform="scale(0.015625)"/>
       <path id="DejaVuSans-6e" d="M 3513 2113 
L 3513 0 
L 2938 0 
L 2938 2094 
Q 2938 2591 2744 2837 
Q 2550 3084 2163 3084 
Q 1697 3084 1428 2787 
Q 1159 2491 1159 1978 
L 1159 0 
L 581 0 
L 581 3500 
L 1159 3500 
L 1159 2956 
Q 1366 3272 1645 3428 
Q 1925 3584 2291 3584 
Q 2894 3584 3203 3211 
Q 3513 2838 3513 2113 
z
" transform="scale(0.015625)"/>
       <path id="DejaVuSans-73" d="M 2834 3397 
L 2834 2853 
Q 2591 2978 2328 3040 
Q 2066 3103 1784 3103 
Q 1356 3103 1142 2972 
Q 928 2841 928 2578 
Q 928 2378 1081 2264 
Q 1234 2150 1697 2047 
L 1894 2003 
Q 2506 1872 2764 1633 
Q 3022 1394 3022 966 
Q 3022 478 2636 193 
Q 2250 -91 1575 -91 
Q 1294 -91 989 -36 
Q 684 19 347 128 
L 347 722 
Q 666 556 975 473 
Q 1284 391 1588 391 
Q 1994 391 2212 530 
Q 2431 669 2431 922 
Q 2431 1156 2273 1281 
Q 2116 1406 1581 1522 
L 1381 1569 
Q 847 1681 609 1914 
Q 372 2147 372 2553 
Q 372 3047 722 3315 
Q 1072 3584 1716 3584 
Q 2034 3584 2315 3537 
Q 2597 3491 2834 3397 
z
" transform="scale(0.015625)"/>
      </defs>
      <use xlink:href="#DejaVuSans-50"/>
      <use xlink:href="#DejaVuSans-72" transform="translate(58.552734 0)"/>
      <use xlink:href="#DejaVuSans-6f" transform="translate(97.416016 0)"/>
      <use xlink:href="#DejaVuSans-62" transform="translate(158.597656 0)"/>
      <use xlink:href="#DejaVuSans-61" transform="translate(222.074219 0)"/>
      <use xlink:href="#DejaVuSans-62" transform="translate(283.353516 0)"/>
      <use xlink:href="#DejaVuSans-69" transform="translate(346.830078 0)"/>
      <use xlink:href="#DejaVuSans-6c" transform="translate(374.613281 0)"/>
      <use xlink:href="#DejaVuSans-69" transform="translate(402.396484 0)"/>
      <use xlink:href="#DejaVuSans-74" transform="translate(430.179688 0)"/>
      <use xlink:href="#DejaVuSans-79" transform="translate(469.388672 0)"/>
      <use xlink:href="#DejaVuSans-20" transform="translate(528.568359 0)"/>
      <use xlink:href="#DejaVuSans-44" transform="translate(560.355469 0)"/>
      <use xlink:href="#DejaVuSans-65" transform="translate(637.357422 0)"/>
      <use xlink:href="#DejaVuSans-6e" transform="translate(698.880859 0)"/>
      <use xlink:href="#DejaVuSans-73" transform="translate(762.259766 0)"/>
      <use xlink:href="#DejaVuSans-69" transform="translate(814.359375 0)"/>
      <use xlink:href="#DejaVuSans-74" transform="translate(842.142578 0)"/>
      <use xlink:href="#DejaVuSans-79" transform="translate(881.351562 0)"/>
     </g>
    </g>
   </g>
   <g id="line2d_37">
    <path d="M 92.290909 307.715463 
L 109.352334 307.49327 
L 120.320393 307.13835 
L 128.444881 306.665377 
L 135.350696 306.04134 
L 141.037838 305.311824 
L 146.318755 304.404308 
L 150.787224 303.41951 
L 154.849468 302.315478 
L 158.911712 300.977088 
L 162.567731 299.540828 
L 166.223751 297.854026 
L 169.473546 296.118559 
L 172.723342 294.136465 
L 175.973137 291.88351 
L 179.222932 289.335008 
L 182.472727 286.466187 
L 185.316298 283.673974 
L 188.159869 280.60191 
L 191.00344 277.234863 
L 193.847011 273.558749 
L 197.096806 268.962788 
L 200.346601 263.930364 
L 203.596396 258.448815 
L 206.846192 252.50973 
L 210.095987 246.109627 
L 213.345782 239.250601 
L 217.001802 230.996215 
L 220.657821 222.193704 
L 224.720066 211.811571 
L 229.188534 199.734605 
L 234.063227 185.903869 
L 240.562817 166.712316 
L 255.59312 122.009485 
L 260.061589 109.552251 
L 263.717609 99.944296 
L 266.967404 91.956958 
L 270.217199 84.580708 
L 273.06077 78.692642 
L 275.498116 74.107461 
L 277.935463 69.980183 
L 280.372809 66.3381 
L 282.403931 63.691332 
L 284.435053 61.41088 
L 286.466175 59.507507 
L 288.091073 58.262437 
L 289.715971 57.268313 
L 291.340868 56.52818 
L 292.965766 56.044306 
L 294.590663 55.81818 
L 296.215561 55.850496 
L 297.840459 56.141155 
L 299.465356 56.689264 
L 301.090254 57.493138 
L 302.715152 58.550314 
L 304.340049 59.857556 
L 305.964947 61.41088 
L 307.996069 63.691332 
L 310.027191 66.3381 
L 312.058313 69.33878 
L 314.495659 73.387011 
L 316.933006 77.897886 
L 319.370352 82.841898 
L 322.213923 89.114716 
L 325.463718 96.882864 
L 329.119738 106.283716 
L 333.181982 117.401976 
L 338.056675 131.436416 
L 345.368714 153.271356 
L 355.524324 183.544041 
L 360.805242 198.606087 
L 365.27371 210.74073 
L 369.335954 221.183157 
L 373.398198 230.996215 
L 377.054218 239.250601 
L 380.710238 246.934837 
L 383.960033 253.277307 
L 387.209828 259.158902 
L 390.459623 264.583757 
L 393.709419 269.560851 
L 396.959214 274.103329 
L 400.209009 278.22782 
L 403.458804 281.953768 
L 406.7086 285.302787 
L 409.958395 288.298063 
L 413.20819 290.963789 
L 416.457985 293.324668 
L 419.707781 295.405464 
L 422.957576 297.230618 
L 426.613595 299.007938 
L 430.269615 300.524279 
L 433.925635 301.810296 
L 437.987879 303.003733 
L 442.456347 304.071498 
L 447.33104 304.992115 
L 452.611957 305.756213 
L 458.705324 306.402276 
L 465.611138 306.907045 
L 474.141851 307.299574 
L 485.10991 307.571993 
L 498.109091 307.715463 
L 498.109091 307.715463 
" clip-path="url(#p45e2238d88)" style="fill: none; stroke: #000000; stroke-width: 2; stroke-linecap: square"/>
   </g>
   <g id="line2d_38">
    <path d="M 329.415026 307.8 
L 329.415026 107.069969 
" clip-path="url(#p45e2238d88)" style="fill: none; stroke-dasharray: 7.4,3.2; stroke-dashoffset: 0; stroke: #0000ff; stroke-width: 2"/>
   </g>
   <g id="patch_3">
    <path d="M 72 320.4 
L 72 43.2 
" style="fill: none; stroke: #000000; stroke-width: 0.8; stroke-linejoin: miter; stroke-linecap: square"/>
   </g>
   <g id="patch_4">
    <path d="M 518.4 320.4 
L 518.4 43.2 
" style="fill: none; stroke: #000000; stroke-width: 0.8; stroke-linejoin: miter; stroke-linecap: square"/>
   </g>
   <g id="patch_5">
    <path d="M 72 320.4 
L 518.4 320.4 
" style="fill: none; stroke: #000000; stroke-width: 0.8; stroke-linejoin: miter; stroke-linecap: square"/>
   </g>
   <g id="patch_6">
    <path d="M 72 43.2 
L 518.4 43.2 
" style="fill: none; stroke: #000000; stroke-width: 0.8; stroke-linejoin: miter; stroke-linecap: square"/>
   </g>
   <g id="text_21">
    <!-- Gaussian Distribution with Shaded Area Above 75th Percentile -->
    <g transform="translate(107.979375 37.2) scale(0.12 -0.12)">
     <defs>
      <path id="DejaVuSans-47" d="M 3809 666 
L 3809 1919 
L 2778 1919 
L 2778 2438 
L 4434 2438 
L 4434 434 
Q 4069 175 3628 42 
Q 3188 -91 2688 -91 
Q 1594 -91 976 548 
Q 359 1188 359 2328 
Q 359 3472 976 4111 
Q 1594 4750 2688 4750 
Q 3144 4750 3555 4637 
Q 3966 4525 4313 4306 
L 4313 3634 
Q 3963 3931 3569 4081 
Q 3175 4231 2741 4231 
Q 1884 4231 1454 3753 
Q 1025 3275 1025 2328 
Q 1025 1384 1454 906 
Q 1884 428 2741 428 
Q 3075 428 3337 486 
Q 3600 544 3809 666 
z
" transform="scale(0.015625)"/>
      <path id="DejaVuSans-75" d="M 544 1381 
L 544 3500 
L 1119 3500 
L 1119 1403 
Q 1119 906 1312 657 
Q 1506 409 1894 409 
Q 2359 409 2629 706 
Q 2900 1003 2900 1516 
L 2900 3500 
L 3475 3500 
L 3475 0 
L 2900 0 
L 2900 538 
Q 2691 219 2414 64 
Q 2138 -91 1772 -91 
Q 1169 -91 856 284 
Q 544 659 544 1381 
z
M 1991 3584 
L 1991 3584 
z
" transform="scale(0.015625)"/>
      <path id="DejaVuSans-77" d="M 269 3500 
L 844 3500 
L 1563 769 
L 2278 3500 
L 2956 3500 
L 3675 769 
L 4391 3500 
L 4966 3500 
L 4050 0 
L 3372 0 
L 2619 2869 
L 1863 0 
L 1184 0 
L 269 3500 
z
" transform="scale(0.015625)"/>
      <path id="DejaVuSans-68" d="M 3513 2113 
L 3513 0 
L 2938 0 
L 2938 2094 
Q 2938 2591 2744 2837 
Q 2550 3084 2163 3084 
Q 1697 3084 1428 2787 
Q 1159 2491 1159 1978 
L 1159 0 
L 581 0 
L 581 4863 
L 1159 4863 
L 1159 2956 
Q 1366 3272 1645 3428 
Q 1925 3584 2291 3584 
Q 2894 3584 3203 3211 
Q 3513 2838 3513 2113 
z
" transform="scale(0.015625)"/>
      <path id="DejaVuSans-53" d="M 3425 4513 
L 3425 3897 
Q 3066 4069 2747 4153 
Q 2428 4238 2131 4238 
Q 1616 4238 1336 4038 
Q 1056 3838 1056 3469 
Q 1056 3159 1242 3001 
Q 1428 2844 1947 2747 
L 2328 2669 
Q 3034 2534 3370 2195 
Q 3706 1856 3706 1288 
Q 3706 609 3251 259 
Q 2797 -91 1919 -91 
Q 1588 -91 1214 -16 
Q 841 59 441 206 
L 441 856 
Q 825 641 1194 531 
Q 1563 422 1919 422 
Q 2459 422 2753 634 
Q 3047 847 3047 1241 
Q 3047 1584 2836 1778 
Q 2625 1972 2144 2069 
L 1759 2144 
Q 1053 2284 737 2584 
Q 422 2884 422 3419 
Q 422 4038 858 4394 
Q 1294 4750 2059 4750 
Q 2388 4750 2728 4690 
Q 3069 4631 3425 4513 
z
" transform="scale(0.015625)"/>
      <path id="DejaVuSans-64" d="M 2906 2969 
L 2906 4863 
L 3481 4863 
L 3481 0 
L 2906 0 
L 2906 525 
Q 2725 213 2448 61 
Q 2172 -91 1784 -91 
Q 1150 -91 751 415 
Q 353 922 353 1747 
Q 353 2572 751 3078 
Q 1150 3584 1784 3584 
Q 2172 3584 2448 3432 
Q 2725 3281 2906 2969 
z
M 947 1747 
Q 947 1113 1208 752 
Q 1469 391 1925 391 
Q 2381 391 2643 752 
Q 2906 1113 2906 1747 
Q 2906 2381 2643 2742 
Q 2381 3103 1925 3103 
Q 1469 3103 1208 2742 
Q 947 2381 947 1747 
z
" transform="scale(0.015625)"/>
      <path id="DejaVuSans-41" d="M 2188 4044 
L 1331 1722 
L 3047 1722 
L 2188 4044 
z
M 1831 4666 
L 2547 4666 
L 4325 0 
L 3669 0 
L 3244 1197 
L 1141 1197 
L 716 0 
L 50 0 
L 1831 4666 
z
" transform="scale(0.015625)"/>
      <path id="DejaVuSans-76" d="M 191 3500 
L 800 3500 
L 1894 563 
L 2988 3500 
L 3597 3500 
L 2284 0 
L 1503 0 
L 191 3500 
z
" transform="scale(0.015625)"/>
      <path id="DejaVuSans-37" d="M 525 4666 
L 3525 4666 
L 3525 4397 
L 1831 0 
L 1172 0 
L 2766 4134 
L 525 4134 
L 525 4666 
z
" transform="scale(0.015625)"/>
      <path id="DejaVuSans-63" d="M 3122 3366 
L 3122 2828 
Q 2878 2963 2633 3030 
Q 2388 3097 2138 3097 
Q 1578 3097 1268 2742 
Q 959 2388 959 1747 
Q 959 1106 1268 751 
Q 1578 397 2138 397 
Q 2388 397 2633 464 
Q 2878 531 3122 666 
L 3122 134 
Q 2881 22 2623 -34 
Q 2366 -91 2075 -91 
Q 1284 -91 818 406 
Q 353 903 353 1747 
Q 353 2603 823 3093 
Q 1294 3584 2113 3584 
Q 2378 3584 2631 3529 
Q 2884 3475 3122 3366 
z
" transform="scale(0.015625)"/>
     </defs>
     <use xlink:href="#DejaVuSans-47"/>
     <use xlink:href="#DejaVuSans-61" transform="translate(77.490234 0)"/>
     <use xlink:href="#DejaVuSans-75" transform="translate(138.769531 0)"/>
     <use xlink:href="#DejaVuSans-73" transform="translate(202.148438 0)"/>
     <use xlink:href="#DejaVuSans-73" transform="translate(254.248047 0)"/>
     <use xlink:href="#DejaVuSans-69" transform="translate(306.347656 0)"/>
     <use xlink:href="#DejaVuSans-61" transform="translate(334.130859 0)"/>
     <use xlink:href="#DejaVuSans-6e" transform="translate(395.410156 0)"/>
     <use xlink:href="#DejaVuSans-20" transform="translate(458.789062 0)"/>
     <use xlink:href="#DejaVuSans-44" transform="translate(490.576172 0)"/>
     <use xlink:href="#DejaVuSans-69" transform="translate(567.578125 0)"/>
     <use xlink:href="#DejaVuSans-73" transform="translate(595.361328 0)"/>
     <use xlink:href="#DejaVuSans-74" transform="translate(647.460938 0)"/>
     <use xlink:href="#DejaVuSans-72" transform="translate(686.669922 0)"/>
     <use xlink:href="#DejaVuSans-69" transform="translate(727.783203 0)"/>
     <use xlink:href="#DejaVuSans-62" transform="translate(755.566406 0)"/>
     <use xlink:href="#DejaVuSans-75" transform="translate(819.042969 0)"/>
     <use xlink:href="#DejaVuSans-74" transform="translate(882.421875 0)"/>
     <use xlink:href="#DejaVuSans-69" transform="translate(921.630859 0)"/>
     <use xlink:href="#DejaVuSans-6f" transform="translate(949.414062 0)"/>
     <use xlink:href="#DejaVuSans-6e" transform="translate(1010.595703 0)"/>
     <use xlink:href="#DejaVuSans-20" transform="translate(1073.974609 0)"/>
     <use xlink:href="#DejaVuSans-77" transform="translate(1105.761719 0)"/>
     <use xlink:href="#DejaVuSans-69" transform="translate(1187.548828 0)"/>
     <use xlink:href="#DejaVuSans-74" transform="translate(1215.332031 0)"/>
     <use xlink:href="#DejaVuSans-68" transform="translate(1254.541016 0)"/>
     <use xlink:href="#DejaVuSans-20" transform="translate(1317.919922 0)"/>
     <use xlink:href="#DejaVuSans-53" transform="translate(1349.707031 0)"/>
     <use xlink:href="#DejaVuSans-68" transform="translate(1413.183594 0)"/>
     <use xlink:href="#DejaVuSans-61" transform="translate(1476.5625 0)"/>
     <use xlink:href="#DejaVuSans-64" transform="translate(1537.841797 0)"/>
     <use xlink:href="#DejaVuSans-65" transform="translate(1601.318359 0)"/>
     <use xlink:href="#DejaVuSans-64" transform="translate(1662.841797 0)"/>
     <use xlink:href="#DejaVuSans-20" transform="translate(1726.318359 0)"/>
     <use xlink:href="#DejaVuSans-41" transform="translate(1758.105469 0)"/>
     <use xlink:href="#DejaVuSans-72" transform="translate(1826.513672 0)"/>
     <use xlink:href="#DejaVuSans-65" transform="translate(1865.376953 0)"/>
     <use xlink:href="#DejaVuSans-61" transform="translate(1926.900391 0)"/>
     <use xlink:href="#DejaVuSans-20" transform="translate(1988.179688 0)"/>
     <use xlink:href="#DejaVuSans-41" transform="translate(2019.966797 0)"/>
     <use xlink:href="#DejaVuSans-62" transform="translate(2088.375 0)"/>
     <use xlink:href="#DejaVuSans-6f" transform="translate(2151.851562 0)"/>
     <use xlink:href="#DejaVuSans-76" transform="translate(2213.033203 0)"/>
     <use xlink:href="#DejaVuSans-65" transform="translate(2272.212891 0)"/>
     <use xlink:href="#DejaVuSans-20" transform="translate(2333.736328 0)"/>
     <use xlink:href="#DejaVuSans-37" transform="translate(2365.523438 0)"/>
     <use xlink:href="#DejaVuSans-35" transform="translate(2429.146484 0)"/>
     <use xlink:href="#DejaVuSans-74" transform="translate(2492.769531 0)"/>
     <use xlink:href="#DejaVuSans-68" transform="translate(2531.978516 0)"/>
     <use xlink:href="#DejaVuSans-20" transform="translate(2595.357422 0)"/>
     <use xlink:href="#DejaVuSans-50" transform="translate(2627.144531 0)"/>
     <use xlink:href="#DejaVuSans-65" transform="translate(2683.822266 0)"/>
     <use xlink:href="#DejaVuSans-72" transform="translate(2745.345703 0)"/>
     <use xlink:href="#DejaVuSans-63" transform="translate(2784.208984 0)"/>
     <use xlink:href="#DejaVuSans-65" transform="translate(2839.189453 0)"/>
     <use xlink:href="#DejaVuSans-6e" transform="translate(2900.712891 0)"/>
     <use xlink:href="#DejaVuSans-74" transform="translate(2964.091797 0)"/>
     <use xlink:href="#DejaVuSans-69" transform="translate(3003.300781 0)"/>
     <use xlink:href="#DejaVuSans-6c" transform="translate(3031.083984 0)"/>
     <use xlink:href="#DejaVuSans-65" transform="translate(3058.867188 0)"/>
    </g>
   </g>
   <g id="legend_1">
    <g id="patch_7">
     <path d="M 366.23125 95.234375 
L 511.4 95.234375 
Q 513.4 95.234375 513.4 93.234375 
L 513.4 50.2 
Q 513.4 48.2 511.4 48.2 
L 366.23125 48.2 
Q 364.23125 48.2 364.23125 50.2 
L 364.23125 93.234375 
Q 364.23125 95.234375 366.23125 95.234375 
z
" style="fill: #ffffff; opacity: 0.8; stroke: #cccccc; stroke-linejoin: miter"/>
    </g>
    <g id="line2d_39">
     <path d="M 368.23125 56.298437 
L 378.23125 56.298437 
L 388.23125 56.298437 
" style="fill: none; stroke: #000000; stroke-width: 2; stroke-linecap: square"/>
    </g>
    <g id="text_22">
     <!-- Probability Density -->
     <g transform="translate(396.23125 59.798437) scale(0.1 -0.1)">
      <use xlink:href="#DejaVuSans-50"/>
      <use xlink:href="#DejaVuSans-72" transform="translate(58.552734 0)"/>
      <use xlink:href="#DejaVuSans-6f" transform="translate(97.416016 0)"/>
      <use xlink:href="#DejaVuSans-62" transform="translate(158.597656 0)"/>
      <use xlink:href="#DejaVuSans-61" transform="translate(222.074219 0)"/>
      <use xlink:href="#DejaVuSans-62" transform="translate(283.353516 0)"/>
      <use xlink:href="#DejaVuSans-69" transform="translate(346.830078 0)"/>
      <use xlink:href="#DejaVuSans-6c" transform="translate(374.613281 0)"/>
      <use xlink:href="#DejaVuSans-69" transform="translate(402.396484 0)"/>
      <use xlink:href="#DejaVuSans-74" transform="translate(430.179688 0)"/>
      <use xlink:href="#DejaVuSans-79" transform="translate(469.388672 0)"/>
      <use xlink:href="#DejaVuSans-20" transform="translate(528.568359 0)"/>
      <use xlink:href="#DejaVuSans-44" transform="translate(560.355469 0)"/>
      <use xlink:href="#DejaVuSans-65" transform="translate(637.357422 0)"/>
      <use xlink:href="#DejaVuSans-6e" transform="translate(698.880859 0)"/>
      <use xlink:href="#DejaVuSans-73" transform="translate(762.259766 0)"/>
      <use xlink:href="#DejaVuSans-69" transform="translate(814.359375 0)"/>
      <use xlink:href="#DejaVuSans-74" transform="translate(842.142578 0)"/>
      <use xlink:href="#DejaVuSans-79" transform="translate(881.351562 0)"/>
     </g>
    </g>
    <g id="patch_8">
     <path d="M 368.23125 74.476562 
L 388.23125 74.476562 
L 388.23125 67.476562 
L 368.23125 67.476562 
z
" style="fill: #6495ed; fill-opacity: 0.1; stroke: #6495ed; stroke-opacity: 0.1; stroke-linejoin: miter"/>
    </g>
    <g id="text_23">
     <!-- x &lt; 75th percentile -->
     <g transform="translate(396.23125 74.476562) scale(0.1 -0.1)">
      <defs>
       <path id="DejaVuSans-3c" d="M 4684 3150 
L 1459 2003 
L 4684 863 
L 4684 294 
L 678 1747 
L 678 2266 
L 4684 3719 
L 4684 3150 
z
" transform="scale(0.015625)"/>
       <path id="DejaVuSans-70" d="M 1159 525 
L 1159 -1331 
L 581 -1331 
L 581 3500 
L 1159 3500 
L 1159 2969 
Q 1341 3281 1617 3432 
Q 1894 3584 2278 3584 
Q 2916 3584 3314 3078 
Q 3713 2572 3713 1747 
Q 3713 922 3314 415 
Q 2916 -91 2278 -91 
Q 1894 -91 1617 61 
Q 1341 213 1159 525 
z
M 3116 1747 
Q 3116 2381 2855 2742 
Q 2594 3103 2138 3103 
Q 1681 3103 1420 2742 
Q 1159 2381 1159 1747 
Q 1159 1113 1420 752 
Q 1681 391 2138 391 
Q 2594 391 2855 752 
Q 3116 1113 3116 1747 
z
" transform="scale(0.015625)"/>
      </defs>
      <use xlink:href="#DejaVuSans-78"/>
      <use xlink:href="#DejaVuSans-20" transform="translate(59.179688 0)"/>
      <use xlink:href="#DejaVuSans-3c" transform="translate(90.966797 0)"/>
      <use xlink:href="#DejaVuSans-20" transform="translate(174.755859 0)"/>
      <use xlink:href="#DejaVuSans-37" transform="translate(206.542969 0)"/>
      <use xlink:href="#DejaVuSans-35" transform="translate(270.166016 0)"/>
      <use xlink:href="#DejaVuSans-74" transform="translate(333.789062 0)"/>
      <use xlink:href="#DejaVuSans-68" transform="translate(372.998047 0)"/>
      <use xlink:href="#DejaVuSans-20" transform="translate(436.376953 0)"/>
      <use xlink:href="#DejaVuSans-70" transform="translate(468.164062 0)"/>
      <use xlink:href="#DejaVuSans-65" transform="translate(531.640625 0)"/>
      <use xlink:href="#DejaVuSans-72" transform="translate(593.164062 0)"/>
      <use xlink:href="#DejaVuSans-63" transform="translate(632.027344 0)"/>
      <use xlink:href="#DejaVuSans-65" transform="translate(687.007812 0)"/>
      <use xlink:href="#DejaVuSans-6e" transform="translate(748.53125 0)"/>
      <use xlink:href="#DejaVuSans-74" transform="translate(811.910156 0)"/>
      <use xlink:href="#DejaVuSans-69" transform="translate(851.119141 0)"/>
      <use xlink:href="#DejaVuSans-6c" transform="translate(878.902344 0)"/>
      <use xlink:href="#DejaVuSans-65" transform="translate(906.685547 0)"/>
     </g>
    </g>
    <g id="line2d_40">
     <path d="M 368.23125 85.654687 
L 378.23125 85.654687 
L 388.23125 85.654687 
" style="fill: none; stroke-dasharray: 7.4,3.2; stroke-dashoffset: 0; stroke: #0000ff; stroke-width: 2"/>
    </g>
    <g id="text_24">
     <!-- 75th percentile = 0.67 -->
     <g transform="translate(396.23125 89.154687) scale(0.1 -0.1)">
      <defs>
       <path id="DejaVuSans-3d" d="M 678 2906 
L 4684 2906 
L 4684 2381 
L 678 2381 
L 678 2906 
z
M 678 1631 
L 4684 1631 
L 4684 1100 
L 678 1100 
L 678 1631 
z
" transform="scale(0.015625)"/>
       <path id="DejaVuSans-36" d="M 2113 2584 
Q 1688 2584 1439 2293 
Q 1191 2003 1191 1497 
Q 1191 994 1439 701 
Q 1688 409 2113 409 
Q 2538 409 2786 701 
Q 3034 994 3034 1497 
Q 3034 2003 2786 2293 
Q 2538 2584 2113 2584 
z
M 3366 4563 
L 3366 3988 
Q 3128 4100 2886 4159 
Q 2644 4219 2406 4219 
Q 1781 4219 1451 3797 
Q 1122 3375 1075 2522 
Q 1259 2794 1537 2939 
Q 1816 3084 2150 3084 
Q 2853 3084 3261 2657 
Q 3669 2231 3669 1497 
Q 3669 778 3244 343 
Q 2819 -91 2113 -91 
Q 1303 -91 875 529 
Q 447 1150 447 2328 
Q 447 3434 972 4092 
Q 1497 4750 2381 4750 
Q 2619 4750 2861 4703 
Q 3103 4656 3366 4563 
z
" transform="scale(0.015625)"/>
      </defs>
      <use xlink:href="#DejaVuSans-37"/>
      <use xlink:href="#DejaVuSans-35" transform="translate(63.623047 0)"/>
      <use xlink:href="#DejaVuSans-74" transform="translate(127.246094 0)"/>
      <use xlink:href="#DejaVuSans-68" transform="translate(166.455078 0)"/>
      <use xlink:href="#DejaVuSans-20" transform="translate(229.833984 0)"/>
      <use xlink:href="#DejaVuSans-70" transform="translate(261.621094 0)"/>
      <use xlink:href="#DejaVuSans-65" transform="translate(325.097656 0)"/>
      <use xlink:href="#DejaVuSans-72" transform="translate(386.621094 0)"/>
      <use xlink:href="#DejaVuSans-63" transform="translate(425.484375 0)"/>
      <use xlink:href="#DejaVuSans-65" transform="translate(480.464844 0)"/>
      <use xlink:href="#DejaVuSans-6e" transform="translate(541.988281 0)"/>
      <use xlink:href="#DejaVuSans-74" transform="translate(605.367188 0)"/>
      <use xlink:href="#DejaVuSans-69" transform="translate(644.576172 0)"/>
      <use xlink:href="#DejaVuSans-6c" transform="translate(672.359375 0)"/>
      <use xlink:href="#DejaVuSans-65" transform="translate(700.142578 0)"/>
      <use xlink:href="#DejaVuSans-20" transform="translate(761.666016 0)"/>
      <use xlink:href="#DejaVuSans-3d" transform="translate(793.453125 0)"/>
      <use xlink:href="#DejaVuSans-20" transform="translate(877.242188 0)"/>
      <use xlink:href="#DejaVuSans-30" transform="translate(909.029297 0)"/>
      <use xlink:href="#DejaVuSans-2e" transform="translate(972.652344 0)"/>
      <use xlink:href="#DejaVuSans-36" transform="translate(1004.439453 0)"/>
      <use xlink:href="#DejaVuSans-37" transform="translate(1068.0625 0)"/>
     </g>
    </g>
   </g>
  </g>
 </g>
 <defs>
  <clipPath id="p45e2238d88">
   <rect x="72" y="43.2" width="446.4" height="277.2"/>
  </clipPath>
 </defs>
</svg>
