<?xml version="1.0" encoding="UTF-8" standalone="no"?>
<!DOCTYPE svg PUBLIC "-//W3C//DTD SVG 1.1//EN"
 "http://www.w3.org/Graphics/SVG/1.1/DTD/svg11.dtd">
<!-- Generated by graphviz version 2.47.3 (0)
 -->
<!-- Pages: 1 -->
<svg width="500pt" height="116pt"
 viewBox="0.00 0.00 499.50 116.00" xmlns="http://www.w3.org/2000/svg" xmlns:xlink="http://www.w3.org/1999/xlink">
<g id="graph0" class="graph" transform="scale(1 1) rotate(0) translate(4 112)">
<polygon fill="white" stroke="transparent" points="-4,4 -4,-112 495.5,-112 495.5,4 -4,4"/>
<!-- Length of Student Chain (Miles) -->
<g id="node1" class="node">
<title>Length of Student Chain (Miles)</title>
<text text-anchor="middle" x="283" y="-86.3" font-family="Times,serif" font-size="14.00">Length of Student Chain (Miles)</text>
</g>
<!-- Number of Students Present -->
<g id="node2" class="node">
<title>Number of Students Present</title>
<text text-anchor="middle" x="87" y="-14.3" font-family="Times,serif" font-size="14.00">Number of Students Present</text>
</g>
<!-- Length of Student Chain (Miles)&#45;&gt;Number of Students Present -->
<g id="edge1" class="edge">
<title>Length of Student Chain (Miles)&#45;&gt;Number of Students Present</title>
<path fill="none" stroke="black" d="M225.76,-68.56C196.91,-58.25 162.33,-45.9 134.91,-36.11"/>
<polygon fill="black" stroke="black" points="235.3,-71.97 224.37,-72.84 230.59,-70.28 225.89,-68.6 225.89,-68.6 225.89,-68.6 230.59,-70.28 227.4,-64.36 235.3,-71.97 235.3,-71.97"/>
</g>
<!-- Wing Span of Students (Feet) -->
<g id="node3" class="node">
<title>Wing Span of Students (Feet)</title>
<text text-anchor="middle" x="283" y="-14.3" font-family="Times,serif" font-size="14.00">Wing Span of Students (Feet)</text>
</g>
<!-- Length of Student Chain (Miles)&#45;&gt;Wing Span of Students (Feet) -->
<g id="edge2" class="edge">
<title>Length of Student Chain (Miles)&#45;&gt;Wing Span of Students (Feet)</title>
<path fill="none" stroke="black" d="M283,-61.67C283,-53.05 283,-43.79 283,-36.1"/>
<polygon fill="black" stroke="black" points="283,-71.7 278.5,-61.7 283,-66.7 283,-61.7 283,-61.7 283,-61.7 283,-66.7 287.5,-61.7 283,-71.7 283,-71.7"/>
</g>
<!-- Miles per Foot -->
<g id="node4" class="node">
<title>Miles per Foot</title>
<text text-anchor="middle" x="442" y="-14.3" font-family="Times,serif" font-size="14.00">Miles per Foot</text>
</g>
<!-- Length of Student Chain (Miles)&#45;&gt;Miles per Foot -->
<g id="edge3" class="edge">
<title>Length of Student Chain (Miles)&#45;&gt;Miles per Foot</title>
<path fill="none" stroke="black" d="M331.17,-67.79C354.25,-57.63 381.52,-45.63 403.23,-36.07"/>
<polygon fill="black" stroke="black" points="321.9,-71.88 329.23,-63.73 326.47,-69.86 331.05,-67.85 331.05,-67.85 331.05,-67.85 326.47,-69.86 332.86,-71.97 321.9,-71.88 321.9,-71.88"/>
</g>
</g>
</svg>
