<?xml version="1.0" encoding="UTF-8" standalone="no"?>
<!DOCTYPE svg PUBLIC "-//W3C//DTD SVG 1.1//EN"
 "http://www.w3.org/Graphics/SVG/1.1/DTD/svg11.dtd">
<!-- Generated by graphviz version 2.47.3 (0)
 -->
<!-- Pages: 1 -->
<svg width="422pt" height="116pt"
 viewBox="0.00 0.00 422.00 116.00" xmlns="http://www.w3.org/2000/svg" xmlns:xlink="http://www.w3.org/1999/xlink">
<g id="graph0" class="graph" transform="scale(1 1) rotate(0) translate(4 112)">
<polygon fill="white" stroke="transparent" points="-4,4 -4,-112 418,-112 418,4 -4,4"/>
<!-- Number of Tacos -->
<g id="node1" class="node">
<title>Number of Tacos</title>
<text text-anchor="middle" x="195" y="-86.3" font-family="Times,serif" font-size="14.00">Number of Tacos</text>
</g>
<!-- Number of Students Present -->
<g id="node2" class="node">
<title>Number of Students Present</title>
<text text-anchor="middle" x="87" y="-14.3" font-family="Times,serif" font-size="14.00">Number of Students Present</text>
</g>
<!-- Number of Tacos&#45;&gt;Number of Students Present -->
<g id="edge1" class="edge">
<title>Number of Tacos&#45;&gt;Number of Students Present</title>
<path fill="none" stroke="black" d="M160,-66.31C144.9,-56.53 127.53,-45.27 113.52,-36.19"/>
<polygon fill="black" stroke="black" points="168.58,-71.88 157.74,-70.21 164.38,-69.16 160.19,-66.44 160.19,-66.44 160.19,-66.44 164.38,-69.16 162.64,-62.66 168.58,-71.88 168.58,-71.88"/>
</g>
<!-- Appetite (Tacos per Student Present) -->
<g id="node3" class="node">
<title>Appetite (Tacos per Student Present)</title>
<text text-anchor="middle" x="303" y="-14.3" font-family="Times,serif" font-size="14.00">Appetite (Tacos per Student Present)</text>
</g>
<!-- Number of Tacos&#45;&gt;Appetite (Tacos per Student Present) -->
<g id="edge2" class="edge">
<title>Number of Tacos&#45;&gt;Appetite (Tacos per Student Present)</title>
<path fill="none" stroke="black" d="M230,-66.31C245.1,-56.53 262.47,-45.27 276.48,-36.19"/>
<polygon fill="black" stroke="black" points="221.42,-71.88 227.36,-62.66 225.62,-69.16 229.81,-66.44 229.81,-66.44 229.81,-66.44 225.62,-69.16 232.26,-70.21 221.42,-71.88 221.42,-71.88"/>
</g>
</g>
</svg>
