<?xml version="1.0" encoding="UTF-8" standalone="no"?>
<!DOCTYPE svg PUBLIC "-//W3C//DTD SVG 1.1//EN"
 "http://www.w3.org/Graphics/SVG/1.1/DTD/svg11.dtd">
<!-- Generated by graphviz version 2.47.3 (0)
 -->
<!-- Pages: 1 -->
<svg width="245pt" height="332pt"
 viewBox="0.00 0.00 245.00 332.00" xmlns="http://www.w3.org/2000/svg" xmlns:xlink="http://www.w3.org/1999/xlink">
<g id="graph0" class="graph" transform="scale(1 1) rotate(0) translate(4 328)">
<polygon fill="white" stroke="transparent" points="-4,4 -4,-328 241,-328 241,4 -4,4"/>
<!-- 50th percentile -->
<g id="node1" class="node">
<title>50th percentile</title>
<text text-anchor="middle" x="118.5" y="-302.3" font-family="Times,serif" font-size="14.00">50th percentile</text>
</g>
<!-- x&#45;axis value with half of area to the left -->
<g id="node2" class="node">
<title>x&#45;axis value with half of area to the left</title>
<text text-anchor="middle" x="118.5" y="-230.3" font-family="Times,serif" font-size="14.00">x&#45;axis value with half of area to the left</text>
</g>
<!-- 50th percentile&#45;&gt;x&#45;axis value with half of area to the left -->
<g id="edge1" class="edge">
<title>50th percentile&#45;&gt;x&#45;axis value with half of area to the left</title>
<path fill="none" stroke="black" d="M118.5,-277.67C118.5,-269.05 118.5,-259.79 118.5,-252.1"/>
<polygon fill="black" stroke="black" points="118.5,-287.7 114,-277.7 118.5,-282.7 118.5,-277.7 118.5,-277.7 118.5,-277.7 118.5,-282.7 123,-277.7 118.5,-287.7 118.5,-287.7"/>
</g>
<!-- area of triangle -->
<g id="node3" class="node">
<title>area of triangle</title>
<text text-anchor="middle" x="118.5" y="-158.3" font-family="Times,serif" font-size="14.00">area of triangle</text>
</g>
<!-- x&#45;axis value with half of area to the left&#45;&gt;area of triangle -->
<g id="edge2" class="edge">
<title>x&#45;axis value with half of area to the left&#45;&gt;area of triangle</title>
<path fill="none" stroke="black" d="M118.5,-205.67C118.5,-197.05 118.5,-187.79 118.5,-180.1"/>
<polygon fill="black" stroke="black" points="118.5,-215.7 114,-205.7 118.5,-210.7 118.5,-205.7 118.5,-205.7 118.5,-205.7 118.5,-210.7 123,-205.7 118.5,-215.7 118.5,-215.7"/>
</g>
<!-- base -->
<g id="node4" class="node">
<title>base</title>
<text text-anchor="middle" x="46.5" y="-86.3" font-family="Times,serif" font-size="14.00">base</text>
</g>
<!-- area of triangle&#45;&gt;base -->
<g id="edge3" class="edge">
<title>area of triangle&#45;&gt;base</title>
<path fill="none" stroke="black" d="M93.28,-136.48C83.64,-127.11 72.87,-116.64 64.09,-108.1"/>
<polygon fill="black" stroke="black" points="100.7,-143.7 90.4,-139.95 97.12,-140.21 93.53,-136.73 93.53,-136.73 93.53,-136.73 97.12,-140.21 96.67,-133.5 100.7,-143.7 100.7,-143.7"/>
</g>
<!-- height -->
<g id="node5" class="node">
<title>height</title>
<text text-anchor="middle" x="118.5" y="-86.3" font-family="Times,serif" font-size="14.00">height</text>
</g>
<!-- area of triangle&#45;&gt;height -->
<g id="edge4" class="edge">
<title>area of triangle&#45;&gt;height</title>
<path fill="none" stroke="black" d="M118.5,-133.67C118.5,-125.05 118.5,-115.79 118.5,-108.1"/>
<polygon fill="black" stroke="black" points="118.5,-143.7 114,-133.7 118.5,-138.7 118.5,-133.7 118.5,-133.7 118.5,-133.7 118.5,-138.7 123,-133.7 118.5,-143.7 118.5,-143.7"/>
</g>
<!-- 1/2 -->
<g id="node6" class="node">
<title>1/2</title>
<text text-anchor="middle" x="190.5" y="-86.3" font-family="Times,serif" font-size="14.00">1/2</text>
</g>
<!-- area of triangle&#45;&gt;1/2 -->
<g id="edge5" class="edge">
<title>area of triangle&#45;&gt;1/2</title>
<path fill="none" stroke="black" d="M143.72,-136.48C153.36,-127.11 164.13,-116.64 172.91,-108.1"/>
<polygon fill="black" stroke="black" points="136.3,-143.7 140.33,-133.5 139.88,-140.21 143.47,-136.73 143.47,-136.73 143.47,-136.73 139.88,-140.21 146.6,-139.95 136.3,-143.7 136.3,-143.7"/>
</g>
<!-- slope and base -->
<g id="node7" class="node">
<title>slope and base</title>
<text text-anchor="middle" x="118.5" y="-14.3" font-family="Times,serif" font-size="14.00">slope and base</text>
</g>
<!-- height&#45;&gt;slope and base -->
<g id="edge6" class="edge">
<title>height&#45;&gt;slope and base</title>
<path fill="none" stroke="black" d="M118.5,-61.67C118.5,-53.05 118.5,-43.79 118.5,-36.1"/>
<polygon fill="black" stroke="black" points="118.5,-71.7 114,-61.7 118.5,-66.7 118.5,-61.7 118.5,-61.7 118.5,-61.7 118.5,-66.7 123,-61.7 118.5,-71.7 118.5,-71.7"/>
</g>
</g>
</svg>
